<!-- Generated by IcoMoon.io -->
<svg version="1.1" xmlns="http://www.w3.org/2000/svg" width="1024" height="1024" viewBox="0 0 1024 1024">
<title>tel</title>
<g id="icomoon-ignore">
</g>
<path fill="none" stroke-linejoin="miter" stroke-linecap="butt" stroke-miterlimit="4" stroke-width="10.5567" stroke="#000" d="M670.351 512c0 183.655-148.881 332.536-332.536 332.536s-332.536-148.881-332.536-332.536c0-183.655 148.881-332.536 332.536-332.536s332.536 148.881 332.536 332.536z"></path>
<path fill="#000" d="M1017.176 515.733c2.061-2.062 2.061-5.404 0-7.466l-33.591-33.59c-2.062-2.062-5.404-2.062-7.465 0-2.062 2.061-2.062 5.403 0 7.465l29.859 29.859-29.859 29.859c-2.062 2.062-2.062 5.404 0 7.465s5.403 2.062 7.465 0l33.591-33.59zM316.701 517.278h696.742v-10.557h-696.742v10.557z"></path>
</svg>
