<svg width="146" height="150" viewBox="0 0 146 150" fill="none" xmlns="http://www.w3.org/2000/svg">
<path d="M99.9107 64.0649C99.9971 63.5194 99.6249 63.0072 99.0794 62.9208L90.1902 61.5129C89.6447 61.4265 89.1325 61.7986 89.0461 62.3441C88.9597 62.8896 89.3319 63.4018 89.8774 63.4882L97.7789 64.7397L96.5274 72.6412C96.441 73.1867 96.8132 73.6989 97.3586 73.7853C97.9041 73.8717 98.4164 73.4996 98.5028 72.9541L99.9107 64.0649ZM52.5878 98.809L99.5108 64.7175L98.3352 63.0994L51.4122 97.191L52.5878 98.809Z" fill="black"/>
<path d="M132.663 78.7581C132.714 77.9797 132.871 77.2504 133.132 76.5701C133.405 75.8905 133.722 75.3641 134.083 74.991L135.052 75.6317C134.739 75.9961 134.455 76.4705 134.2 77.0551C133.957 77.6404 133.814 78.2624 133.771 78.9209C133.712 79.819 133.807 80.4747 134.057 80.8879C134.318 81.3019 134.682 81.5242 135.149 81.5548C135.496 81.5776 135.773 81.4816 135.98 81.2666C136.198 81.0644 136.366 80.7869 136.486 80.4339C136.617 80.0818 136.733 79.6866 136.834 79.2482C136.935 78.8099 137.048 78.3723 137.173 77.9356C137.297 77.5108 137.461 77.1247 137.664 76.7773C137.879 76.4306 138.156 76.1541 138.494 75.9478C138.832 75.7535 139.27 75.674 139.809 75.7094C140.324 75.7432 140.775 75.9171 141.163 76.2312C141.552 76.5453 141.841 76.9852 142.033 77.551C142.235 78.1295 142.31 78.8199 142.257 79.6221C142.217 80.2328 142.093 80.838 141.885 81.4377C141.69 82.0381 141.447 82.5273 141.158 82.9052L140.17 82.2812C140.485 81.8809 140.718 81.4453 140.87 80.9742C141.033 80.5038 141.13 80.0292 141.162 79.5502C141.218 78.7001 141.109 78.0616 140.837 77.6348C140.575 77.2208 140.217 76.9989 139.762 76.969C139.403 76.9455 139.114 77.0348 138.896 77.2369C138.678 77.4511 138.497 77.7339 138.354 78.0852C138.222 78.4494 138.105 78.8446 138.005 79.2709C137.904 79.7093 137.786 80.1404 137.65 80.5644C137.525 81.0012 137.361 81.3933 137.157 81.7407C136.965 82.1009 136.701 82.3782 136.363 82.5725C136.037 82.7796 135.616 82.8662 135.101 82.8324C134.55 82.7963 134.082 82.6092 133.695 82.2712C133.32 81.9459 133.037 81.4824 132.848 80.8807C132.671 80.2918 132.609 79.5843 132.663 78.7581Z" fill="black"/>
<path d="M140.469 91.1718C140.288 91.9181 139.984 92.5358 139.556 93.0249C139.137 93.5284 138.598 93.8669 137.939 94.0404C137.276 94.2255 136.502 94.2107 135.616 93.9958L130.28 92.7024L130.582 91.4605L135.795 92.7242C136.763 92.9589 137.551 92.8907 138.16 92.5197C138.777 92.1632 139.192 91.5476 139.405 90.673C139.563 90.02 139.568 89.4161 139.419 88.8613C139.278 88.321 138.99 87.856 138.554 87.4662C138.126 87.0909 137.563 86.8185 136.863 86.6488L132.035 85.4784L132.336 84.2365L145.316 87.3831L145.015 88.625L138.7 87.0941L139.231 86.9637C139.825 87.4164 140.231 88.0087 140.448 88.7405C140.678 89.4751 140.684 90.2856 140.469 91.1718Z" fill="black"/>
<path d="M127.507 99.1959C127.894 98.3699 128.427 97.7118 129.107 97.2215C129.793 96.7472 130.551 96.4722 131.381 96.3965C132.222 96.326 133.067 96.4888 133.915 96.885C134.774 97.2862 135.44 97.8294 135.915 98.5146C136.389 99.1997 136.658 99.9547 136.723 100.78C136.787 101.604 136.623 102.435 136.232 103.272C135.835 104.12 135.299 104.783 134.624 105.263C133.944 105.753 133.192 106.031 132.366 106.095C131.536 106.171 130.691 106.008 129.833 105.607C128.985 105.211 128.318 104.667 127.833 103.977C127.353 103.303 127.079 102.545 127.008 101.705C126.949 100.869 127.115 100.033 127.507 99.1959ZM128.534 99.6759C128.244 100.295 128.123 100.908 128.171 101.513C128.23 102.123 128.446 102.681 128.819 103.186C129.198 103.708 129.719 104.123 130.382 104.433C131.056 104.748 131.709 104.881 132.342 104.832C132.969 104.794 133.53 104.599 134.026 104.248C134.532 103.902 134.928 103.425 135.213 102.816C135.498 102.207 135.611 101.598 135.552 100.988C135.504 100.382 135.296 99.8217 134.928 99.3055C134.561 98.7892 134.04 98.3737 133.365 98.0588C132.702 97.7489 132.049 97.6159 131.406 97.6598C130.773 97.7087 130.204 97.9063 129.698 98.2524C129.202 98.6036 128.814 99.0781 128.534 99.6759Z" fill="black"/>
<path d="M121.499 109.341C121.982 108.683 122.568 108.198 123.259 107.885C123.959 107.58 124.712 107.477 125.517 107.576C126.325 107.692 127.146 108.054 127.978 108.664C128.811 109.274 129.399 109.943 129.743 110.671C130.097 111.406 130.229 112.149 130.138 112.901C130.048 113.653 129.758 114.363 129.268 115.03C128.736 115.756 128.096 116.284 127.348 116.614C126.602 116.96 125.814 117.082 124.982 116.978C124.159 116.882 123.366 116.553 122.601 115.993C121.826 115.426 121.269 114.765 120.93 114.011C120.59 113.256 120.469 112.468 120.566 111.647C120.655 110.835 120.966 110.066 121.499 109.341ZM121.64 103.398L132.081 111.044L131.357 112.031L129.063 110.351L127.612 109.132L125.966 108.15L120.884 104.428L121.64 103.398ZM122.467 109.938C122.069 110.48 121.836 111.052 121.765 111.655C121.705 112.265 121.805 112.859 122.065 113.437C122.336 114.022 122.766 114.53 123.357 114.963C123.948 115.395 124.558 115.649 125.188 115.723C125.818 115.798 126.415 115.715 126.979 115.473C127.543 115.232 128.024 114.84 128.421 114.298C128.819 113.757 129.051 113.176 129.119 112.556C129.18 111.946 129.079 111.352 128.819 110.775C128.551 110.207 128.122 109.706 127.531 109.274C126.94 108.841 126.329 108.579 125.696 108.488C125.066 108.413 124.47 108.497 123.905 108.738C123.344 108.996 122.864 109.396 122.467 109.938Z" fill="black"/>
<path d="M116.062 128.492C115.454 128.962 114.831 129.254 114.191 129.368C113.549 129.5 112.917 129.428 112.293 129.151C111.66 128.882 111.065 128.387 110.506 127.666L107.147 123.324L108.158 122.542L111.441 126.785C112.05 127.572 112.709 128.012 113.416 128.102C114.121 128.209 114.83 127.988 115.542 127.438C116.074 127.027 116.455 126.559 116.685 126.032C116.913 125.523 116.978 124.98 116.881 124.403C116.781 123.843 116.511 123.278 116.071 122.709L113.03 118.78L114.042 117.998L119.825 125.472L118.856 126.22L117.27 124.17L117.724 124.434C117.905 125.158 117.852 125.874 117.565 126.581C117.285 127.298 116.784 127.935 116.062 128.492Z" fill="black"/>
<path d="M101.026 126.628C101.842 126.221 102.669 126.036 103.506 126.074C104.339 126.128 105.104 126.384 105.801 126.84C106.505 127.307 107.066 127.959 107.484 128.796C107.908 129.644 108.093 130.484 108.04 131.315C107.986 132.147 107.728 132.906 107.267 133.592C106.805 134.279 106.161 134.828 105.334 135.241C104.497 135.659 103.665 135.847 102.838 135.803C102 135.765 101.238 135.516 100.551 135.054C99.8532 134.598 99.2923 133.945 98.8682 133.098C98.4495 132.26 98.2643 131.421 98.3127 130.578C98.3556 129.752 98.6107 128.988 99.0777 128.285C99.5501 127.593 100.2 127.041 101.026 126.628ZM101.534 127.643C100.922 127.948 100.447 128.353 100.108 128.857C99.7755 129.372 99.5984 129.943 99.5769 130.571C99.55 131.215 99.7003 131.864 100.028 132.519C100.361 133.184 100.79 133.694 101.316 134.048C101.831 134.408 102.392 134.604 102.999 134.637C103.611 134.68 104.218 134.551 104.819 134.251C105.42 133.951 105.887 133.543 106.22 133.029C106.558 132.524 106.743 131.956 106.776 131.323C106.808 130.69 106.657 130.04 106.325 129.375C105.997 128.72 105.568 128.211 105.036 127.845C104.51 127.491 103.941 127.292 103.329 127.249C102.723 127.217 102.124 127.348 101.534 127.643Z" fill="black"/>
<path d="M93.03 130.184L98.7873 138.484L97.6 138.781L92.3234 131.066L92.8647 130.93L91.7681 140.242L90.703 140.509L85.3741 132.807L85.9154 132.671L84.8537 141.974L83.7188 142.258L84.8933 132.222L86.0632 131.929L91.1428 139.155L90.7762 139.247L91.8601 130.477L93.03 130.184Z" fill="black"/>
<path d="M73.1183 132.785C73.898 132.809 74.6323 132.94 75.3213 133.177C76.0099 133.426 76.5469 133.725 76.9324 134.073L76.3255 135.063C75.9506 134.763 75.4666 134.496 74.8736 134.262C74.2801 134.039 73.6536 133.918 72.9939 133.898C72.0943 133.87 71.4424 133.988 71.038 134.251C70.6333 134.527 70.4237 134.899 70.4093 135.367C70.3985 135.714 70.5041 135.988 70.7261 136.187C70.9357 136.397 71.2189 136.556 71.5758 136.663C71.9323 136.782 72.3313 136.885 72.7729 136.97C73.2144 137.056 73.6556 137.154 74.0964 137.263C74.5253 137.372 74.9168 137.523 75.2711 137.714C75.625 137.917 75.9109 138.184 76.1287 138.514C76.3346 138.845 76.4292 139.28 76.4125 139.82C76.3966 140.336 76.2384 140.793 75.9379 141.192C75.6374 141.591 75.2078 141.896 74.649 142.107C74.0779 142.329 73.3905 142.428 72.5869 142.403C71.9752 142.384 71.3661 142.281 70.7595 142.095C70.1527 141.92 69.6554 141.694 69.2677 141.418L69.8572 140.41C70.2681 140.711 70.7116 140.929 71.1876 141.063C71.6633 141.21 72.141 141.291 72.6208 141.306C73.4724 141.332 74.1067 141.201 74.5238 140.914C74.9285 140.638 75.1379 140.273 75.152 139.817C75.1631 139.457 75.0639 139.172 74.8543 138.961C74.6327 138.75 74.3439 138.579 73.9878 138.448C73.6193 138.329 73.2202 138.227 72.7907 138.141C72.3491 138.056 71.9141 137.952 71.4856 137.831C71.0448 137.721 70.6473 137.571 70.293 137.38C69.9264 137.201 69.6401 136.946 69.4342 136.615C69.216 136.296 69.1148 135.879 69.1308 135.363C69.1478 134.811 69.3186 134.336 69.643 133.938C69.9551 133.552 70.4086 133.254 71.0033 133.044C71.5857 132.846 72.2907 132.759 73.1183 132.785Z" fill="black"/>
<path d="M61.0383 141.007C60.2862 140.851 59.6584 140.569 59.1551 140.158C58.6375 139.757 58.2809 139.23 58.0851 138.577C57.8775 137.922 57.8661 137.148 58.0508 136.254L59.1627 130.878L60.4143 131.137L59.3279 136.389C59.1262 137.365 59.2211 138.15 59.6127 138.746C59.99 139.35 60.6194 139.744 61.5008 139.926C62.1589 140.062 62.7627 140.045 63.3122 139.877C63.8475 139.718 64.3026 139.414 64.6774 138.964C65.038 138.524 65.2912 137.951 65.437 137.246L66.4432 132.381L67.6948 132.639L64.9899 145.719L63.7383 145.46L65.0543 139.097L65.2026 139.624C64.7703 140.233 64.1921 140.659 63.4679 140.902C62.7413 141.156 61.9315 141.191 61.0383 141.007Z" fill="black"/>
<path d="M52.6869 128.376C53.527 128.731 54.2046 129.239 54.7198 129.899C55.2193 130.566 55.5221 131.313 55.6283 132.14C55.7298 132.977 55.5981 133.827 55.2332 134.689C54.8636 135.562 54.345 136.248 53.6774 136.748C53.0099 137.247 52.2649 137.545 51.4427 137.64C50.6204 137.736 49.7837 137.604 48.9325 137.244C48.0704 136.88 47.3872 136.369 46.883 135.713C46.3678 135.053 46.0627 134.312 45.9675 133.49C45.8614 132.663 45.9931 131.813 46.3627 130.94C46.7276 130.079 47.2461 129.392 47.9184 128.882C48.5749 128.377 49.3222 128.074 50.1602 127.973C50.9935 127.882 51.8358 128.016 52.6869 128.376ZM52.2448 129.42C51.6147 129.154 50.998 129.056 50.3947 129.127C49.7867 129.209 49.237 129.445 48.7454 129.837C48.2381 130.235 47.8418 130.771 47.5564 131.445C47.2664 132.13 47.1575 132.788 47.2296 133.417C47.2908 134.042 47.5061 134.596 47.8755 135.078C48.2402 135.57 48.732 135.948 49.351 136.209C49.97 136.471 50.5835 136.561 51.1915 136.479C51.7949 136.408 52.3478 136.179 52.8504 135.792C53.353 135.406 53.7493 134.87 54.0394 134.184C54.3248 133.51 54.4337 132.853 54.3662 132.212C54.294 131.582 54.0755 131.021 53.7108 130.528C53.3414 130.046 52.8527 129.677 52.2448 129.42Z" fill="black"/>
<path d="M42.3347 122.75C43.0102 123.208 43.5167 123.776 43.8541 124.454C44.1848 125.142 44.3152 125.89 44.2454 126.698C44.1589 127.509 43.8258 128.341 43.2461 129.195C42.6665 130.049 42.0189 130.661 41.3033 131.032C40.581 131.412 39.8422 131.571 39.0869 131.508C38.3316 131.446 37.6112 131.182 36.9257 130.718C36.1807 130.213 35.6297 129.593 35.2727 128.858C34.8991 128.127 34.749 127.344 34.8224 126.509C34.8891 125.685 35.1886 124.88 35.7211 124.096C36.2603 123.302 36.901 122.721 37.6432 122.354C38.3853 121.988 39.169 121.837 39.9942 121.904C40.8095 121.963 41.5897 122.246 42.3347 122.75ZM48.2837 122.672L41.0145 133.38L40.0012 132.693L41.5986 130.34L42.7645 128.847L43.6872 127.168L47.2258 121.955L48.2837 122.672ZM41.7723 123.739C41.216 123.362 40.635 123.15 40.0294 123.102C39.4171 123.064 38.8267 123.185 38.2584 123.467C37.6833 123.759 37.1902 124.207 36.7791 124.813C36.3679 125.419 36.1365 126.037 36.0847 126.669C36.0329 127.301 36.138 127.894 36.3998 128.448C36.6617 129.002 37.0708 129.468 37.6271 129.845C38.1834 130.222 38.7727 130.433 39.395 130.478C40.0073 130.516 40.5976 130.394 41.166 130.112C41.7244 129.824 42.2091 129.377 42.6203 128.771C43.0314 128.166 43.2712 127.545 43.3397 126.91C43.3914 126.279 43.2864 125.686 43.0245 125.131C42.746 124.58 42.3286 124.116 41.7723 123.739Z" fill="black"/>
<path d="M23.003 118.034C22.5112 117.444 22.1962 116.832 22.0579 116.197C21.9027 115.561 21.952 114.927 22.2057 114.295C22.4518 113.653 22.9253 113.04 23.6263 112.457L27.8462 108.945L28.6646 109.927L24.5415 113.358C23.776 113.995 23.3608 114.668 23.2962 115.378C23.2146 116.086 23.462 116.785 24.0383 117.476C24.4686 117.993 24.9512 118.356 25.4861 118.567C26.0041 118.776 26.5498 118.821 27.1232 118.703C27.6796 118.583 28.2346 118.293 28.788 117.833L32.6067 114.655L33.4251 115.636L26.1613 121.681L25.3775 120.741L27.3698 119.083L27.123 119.546C26.4052 119.753 25.6873 119.726 24.9695 119.465C24.2425 119.211 23.587 118.734 23.003 118.034Z" fill="black"/>
<path d="M24.3328 102.986C24.7707 103.786 24.9863 104.605 24.9797 105.443C24.9568 106.276 24.7303 107.049 24.3001 107.763C23.8593 108.482 23.2283 109.066 22.4069 109.515C21.5749 109.969 20.7422 110.185 19.9087 110.162C19.0752 110.138 18.3066 109.909 17.6028 109.473C16.8991 109.037 16.3254 108.414 15.8818 107.603C15.4324 106.782 15.2138 105.958 15.2262 105.131C15.2328 104.293 15.4541 103.523 15.8901 102.819C16.3203 102.106 16.9513 101.522 17.7833 101.067C18.6047 100.619 19.4374 100.403 20.2815 100.42C21.1092 100.433 21.8831 100.66 22.6031 101.101C23.3126 101.547 23.8892 102.176 24.3328 102.986ZM23.3376 103.53C23.0092 102.93 22.5867 102.47 22.0699 102.151C21.5426 101.837 20.9647 101.681 20.3362 101.683C19.6915 101.679 19.0479 101.853 18.4055 102.204C17.7526 102.561 17.2588 103.008 16.9242 103.547C16.5838 104.074 16.4087 104.642 16.399 105.249C16.3787 105.862 16.5298 106.463 16.8525 107.052C17.1751 107.642 17.6001 108.093 18.1274 108.407C18.6442 108.726 19.2197 108.89 19.8539 108.899C20.4881 108.908 21.1317 108.735 21.7846 108.378C22.427 108.027 22.9208 107.579 23.2659 107.035C23.6006 106.497 23.778 105.921 23.7983 105.309C23.8081 104.702 23.6545 104.109 23.3376 103.53Z" fill="black"/>
<path d="M20.4695 95.1569L12.3714 101.19L12.0331 100.013L19.5632 94.4806L19.7175 95.0169L10.3714 94.2354L10.0679 93.1802L17.5831 87.5957L17.7374 88.132L8.40121 87.3851L8.07782 86.2607L18.151 87.0956L18.4844 88.2546L11.436 93.574L11.3316 93.2107L20.1361 93.9978L20.4695 95.1569Z" fill="black"/>
<path d="M17.143 75.6893C17.149 76.4693 17.0467 77.2081 16.8361 77.9058C16.6135 78.6035 16.3357 79.1517 16.0028 79.5502L14.9904 78.982C15.2754 78.5958 15.5236 78.1019 15.735 77.5002C15.9343 76.8987 16.0314 76.2679 16.0263 75.6079C16.0194 74.708 15.8763 74.061 15.5973 73.6672C15.3062 73.2734 14.9267 73.0783 14.4587 73.0819C14.1107 73.0846 13.8416 73.2007 13.6514 73.4302C13.4491 73.6477 13.3013 73.9369 13.2081 74.2976C13.1029 74.6584 13.016 75.0611 12.9474 75.5057C12.8789 75.9502 12.7983 76.3948 12.7057 76.8396C12.6131 77.2723 12.4782 77.6693 12.301 78.0307C12.1117 78.3922 11.856 78.6882 11.5338 78.9186C11.2115 79.1371 10.7803 79.2485 10.2403 79.2526C9.72436 79.2566 9.26126 79.1162 8.85104 78.8313C8.44083 78.5465 8.11959 78.1289 7.88732 77.5787C7.64297 77.0166 7.51768 76.3335 7.51146 75.5295C7.50672 74.9176 7.58599 74.3049 7.74925 73.6916C7.90051 73.0785 8.1066 72.5729 8.36753 72.1748L9.39782 72.7249C9.11307 73.1471 8.91256 73.5987 8.79628 74.0796C8.668 74.5606 8.60571 75.0411 8.60943 75.5211C8.61602 76.3731 8.77089 77.0019 9.07404 77.4076C9.36509 77.8013 9.73861 77.9965 10.1946 77.9929C10.5546 77.9902 10.8357 77.88 11.0381 77.6624C11.2403 77.4329 11.4 77.1376 11.5172 76.7767C11.6223 76.4039 11.7092 76.0012 11.7779 75.5687C11.8465 75.1241 11.9331 74.6854 12.0377 74.2526C12.1303 73.8079 12.2652 73.4048 12.4424 73.0435C12.6075 72.6702 12.8512 72.3743 13.1735 72.1558C13.4838 71.9254 13.8969 71.8082 14.4128 71.8043C14.9648 71.8 15.446 71.9523 15.8564 72.2611C16.2547 72.5581 16.5702 72.9997 16.8027 73.5859C17.0231 74.1602 17.1366 74.8614 17.143 75.6893Z" fill="black"/>
<path d="M8.44914 63.8038C8.57594 63.0463 8.83485 62.4082 9.22587 61.8894C9.60703 61.3568 10.1203 60.9801 10.7656 60.7592C11.4129 60.5265 12.1864 60.4851 13.0859 60.635L18.5012 61.5377L18.2902 62.7981L12.9992 61.9162C12.0168 61.7524 11.2354 61.8777 10.655 62.2919C10.0648 62.6923 9.69542 63.3363 9.54683 64.224C9.43588 64.8867 9.47492 65.4894 9.66395 66.0318C9.84313 66.5605 10.1644 67.0033 10.6278 67.3604C11.0814 67.7036 11.6633 67.9344 12.3735 68.0528L17.2739 68.8697L17.0629 70.1301L3.88862 67.9341L4.09962 66.6737L10.5092 67.7421L9.98819 67.9107C9.36303 67.5024 8.91555 66.9411 8.64575 66.2271C8.3641 65.511 8.29857 64.7032 8.44914 63.8038Z" fill="black"/>
<path d="M20.7316 54.9725C20.4077 55.8251 19.9251 56.5212 19.2836 57.0608C18.6352 57.585 17.8998 57.9158 17.0775 58.0531C16.2439 58.1862 15.3895 58.0869 14.5143 57.755C13.6278 57.4189 12.9226 56.927 12.3985 56.2791C11.8744 55.6312 11.5495 54.8984 11.4236 54.0806C11.2978 53.2629 11.399 52.4222 11.7271 51.5584C12.0594 50.6834 12.5442 49.9817 13.1814 49.4533C13.8228 48.9136 14.5526 48.5807 15.3707 48.4546C16.1931 48.3172 17.0475 48.4166 17.9339 48.7527C18.8091 49.0845 19.5144 49.5765 20.0497 50.2286C20.578 50.8653 20.9086 51.6002 21.0414 52.4334C21.1629 53.2624 21.0597 54.1087 20.7316 54.9725ZM19.6712 54.5705C19.9141 53.9311 19.989 53.3114 19.896 52.7114C19.7918 52.1072 19.5349 51.567 19.1252 51.0909C18.7087 50.5993 18.1582 50.2237 17.4737 49.9642C16.778 49.7004 16.1167 49.6165 15.4898 49.7125C14.8671 49.7972 14.3218 50.0332 13.8538 50.4205C13.3745 50.8034 13.0156 51.309 12.777 51.9372C12.5383 52.5654 12.4711 53.1816 12.5754 53.7858C12.6684 54.3858 12.9176 54.9294 13.3229 55.4168C13.7283 55.9042 14.2788 56.2797 14.9745 56.5435C15.6589 56.803 16.3202 56.8869 16.9584 56.7952C17.5853 56.6992 18.1384 56.4598 18.6176 56.0768C19.0857 55.6896 19.4368 55.1875 19.6712 54.5705Z" fill="black"/>
<path d="M25.9574 44.393C25.5241 45.0845 24.9746 45.6113 24.3088 45.9733C23.6328 46.3289 22.8895 46.4868 22.079 46.447C21.2646 46.3906 20.42 46.0888 19.545 45.5416C18.67 44.9944 18.0344 44.3703 17.638 43.6695C17.2314 42.9623 17.0457 42.2305 17.0807 41.4739C17.1157 40.7174 17.3531 39.9883 17.7927 39.2867C18.2706 38.524 18.8704 37.9509 19.5923 37.5673C20.3103 37.1671 21.088 36.9883 21.9252 37.0307C22.7523 37.0667 23.5677 37.3361 24.3715 37.8388C25.1854 38.3478 25.7892 38.9661 26.1831 39.6936C26.5769 40.4211 26.7556 41.1981 26.7192 42.0246C26.6892 42.8409 26.4353 43.6304 25.9574 44.393ZM26.2517 50.3305L15.279 43.468L15.9289 42.4308L18.3401 43.9388L19.8757 45.0478L21.5889 45.907L26.9303 49.2476L26.2517 50.3305ZM24.9482 43.868C25.305 43.2985 25.4964 42.7106 25.5224 42.1041C25.5382 41.4912 25.3949 40.9062 25.0926 40.3491C24.7801 39.7857 24.3135 39.3099 23.6929 38.9217C23.0723 38.5336 22.4451 38.3254 21.8115 38.297C21.1778 38.2687 20.5885 38.3956 20.0436 38.6775C19.4988 38.9595 19.0479 39.3852 18.6911 39.9547C18.3343 40.5241 18.1448 41.1204 18.1226 41.7434C18.1068 42.3563 18.2501 42.9413 18.5524 43.4983C18.8611 44.0453 19.3258 44.5128 19.9464 44.9009C20.567 45.2891 21.1961 45.5056 21.8335 45.5504C22.4672 45.5788 23.0565 45.4519 23.6013 45.1699C24.1424 44.8714 24.5914 44.4374 24.9482 43.868Z" fill="black"/>
<path d="M29.9666 24.8641C30.5386 24.3517 31.1394 24.015 31.7688 23.854C32.3991 23.676 33.0353 23.7022 33.6774 23.9326C34.3284 24.155 34.9585 24.6056 35.5676 25.2844L39.2342 29.3704L38.2822 30.2231L34.6998 26.2308C34.0346 25.4895 33.3459 25.0994 32.6339 25.0606C31.9228 25.0048 31.232 25.2771 30.5616 25.8776C30.0611 26.326 29.7153 26.821 29.5242 27.3627C29.334 27.8874 29.3084 28.4339 29.4475 29.0021C29.5874 29.5533 29.8978 30.0969 30.3787 30.6327L33.6967 34.3303L32.7447 35.183L26.4333 28.1496L27.3451 27.3329L29.0762 29.2621L28.6041 29.0325C28.3708 28.3232 28.3717 27.6056 28.6068 26.8794C28.834 26.1443 29.2872 25.4726 29.9666 24.8641Z" fill="black"/>
<path d="M44.9659 25.6769C44.1822 26.1433 43.3714 26.3885 42.5334 26.4124C41.6996 26.4199 40.9179 26.2218 40.1882 25.8182C39.4524 25.4043 38.8448 24.7954 38.3655 23.9915C37.88 23.1772 37.6333 22.3535 37.6255 21.5203C37.6177 20.6871 37.8186 19.9111 38.2284 19.1925C38.6381 18.4738 39.24 17.8782 40.034 17.4056C40.8384 16.9269 41.6544 16.6787 42.482 16.6609C43.32 16.6369 44.0986 16.8298 44.818 17.2396C45.5476 17.6432 46.1552 18.2521 46.6407 19.0663C47.1201 19.8703 47.3668 20.694 47.3807 21.5375C47.3989 22.3646 47.201 23.1457 46.787 23.8808C46.367 24.6056 45.7599 25.2043 44.9659 25.6769ZM44.3852 24.7029C44.9729 24.353 45.4169 23.9143 45.7169 23.3866C46.0109 22.8485 46.1454 22.2658 46.1205 21.6382C46.0997 20.9942 45.9019 20.3579 45.5271 19.7292C45.146 19.0901 44.6801 18.6133 44.1293 18.2988C43.5888 17.9781 43.0149 17.824 42.4075 17.8363C41.794 17.8384 41.1985 18.0113 40.621 18.3549C40.0436 18.6986 39.6079 19.1395 39.314 19.6775C39.0139 20.2052 38.8711 20.7859 38.8857 21.4196C38.9003 22.0533 39.0981 22.6896 39.4792 23.3287C39.854 23.9574 40.32 24.4342 40.8769 24.759C41.4277 25.0736 42.0099 25.2298 42.6234 25.2277C43.2308 25.2154 43.818 25.0404 44.3852 24.7029Z" fill="black"/>
<path d="M52.6075 21.499L46.268 13.6344L47.4308 13.2525L53.2488 20.5685L52.7187 20.7426L53.1427 11.3767L54.1859 11.0341L60.0552 18.3332L59.525 18.5073L59.9149 9.15265L61.0265 8.78759L60.5768 18.8818L59.431 19.2581L53.8446 12.4156L54.2037 12.2976L53.7533 21.1227L52.6075 21.499Z" fill="black"/>
<path d="M72.1524 17.379C71.3731 17.412 70.6312 17.3354 69.9266 17.1491C69.2216 16.9508 68.6641 16.6922 68.2542 16.3733L68.7868 15.3418C69.1827 15.6133 69.685 15.8442 70.2936 16.0346C70.9017 16.2129 71.5355 16.2881 72.1949 16.2602C73.0941 16.222 73.7357 16.0566 74.1196 15.7641C74.503 15.4596 74.6848 15.0735 74.6649 14.6059C74.6501 14.2583 74.5247 13.9933 74.2888 13.8112C74.0643 13.6165 73.7702 13.4789 73.4064 13.3982C73.0422 13.3056 72.6367 13.2327 72.1901 13.1796C71.7434 13.1265 71.2962 13.0614 70.8486 12.9843C70.4129 12.9067 70.0114 12.7856 69.644 12.621C69.2762 12.4445 68.9715 12.1992 68.73 11.8851C68.5004 11.5706 68.3741 11.1435 68.3512 10.604C68.3293 10.0885 68.4535 9.62081 68.7239 9.20097C68.9943 8.78113 69.4005 8.44561 69.9423 8.19441C70.4956 7.93071 71.1739 7.78182 71.9771 7.74773C72.5886 7.72178 73.2036 7.77976 73.8222 7.92166C74.4403 8.05157 74.9527 8.24001 75.3596 8.48698L74.8457 9.53572C74.4138 9.26578 73.9556 9.08105 73.4709 8.98151C72.9857 8.86998 72.5033 8.82439 72.0238 8.84474C71.1725 8.88086 70.5495 9.05744 70.1546 9.37447C69.7712 9.679 69.5892 10.0591 69.6085 10.5146C69.6238 10.8743 69.7437 11.1515 69.9682 11.3461C70.2046 11.5403 70.5053 11.6897 70.87 11.7943C71.2463 11.8864 71.6517 11.9593 72.0864 12.0129C72.5331 12.066 72.9745 12.1374 73.4107 12.227C73.8584 12.3041 74.2659 12.4249 74.6332 12.5895C75.012 12.7415 75.3162 12.9749 75.5458 13.2894C75.7868 13.5915 75.9183 14.0003 75.9402 14.5158C75.9637 15.0673 75.8282 15.5535 75.5338 15.9743C75.2509 16.3827 74.8205 16.7132 74.2427 16.966C73.6764 17.2062 72.9797 17.3439 72.1524 17.379Z" fill="black"/>
<path d="M83.8085 8.25808C84.57 8.35831 85.2166 8.59472 85.7485 8.96732C86.2938 9.32958 86.6878 9.82928 86.9306 10.4664C87.1853 11.1051 87.253 11.8766 87.1338 12.7807L86.416 18.2236L85.1489 18.0568L85.8502 12.7389C85.9804 11.7514 85.8287 10.975 85.3949 10.4095C84.9745 9.83373 84.3182 9.48711 83.4259 9.36966C82.7597 9.28196 82.1586 9.34204 81.6229 9.54989C81.1006 9.74742 80.6689 10.084 80.3278 10.5595C80.0001 11.0247 79.7892 11.6142 79.6951 12.3281L79.0456 17.2534L77.7785 17.0866L79.5247 3.84528L80.7918 4.01207L79.9422 10.4543L79.7559 9.93957C80.1428 9.3006 80.6885 8.83382 81.393 8.53925C82.0992 8.23279 82.9043 8.13906 83.8085 8.25808Z" fill="black"/>
<path d="M93.2445 20.257C92.3813 19.9627 91.6692 19.5044 91.1083 18.882C90.5626 18.2522 90.2073 17.5289 90.0426 16.712C89.8817 15.8837 89.9525 15.0267 90.2551 14.141C90.5615 13.2439 91.0299 12.5225 91.6602 11.9767C92.2904 11.4309 93.0123 11.0811 93.8256 10.9274C94.639 10.7736 95.483 10.8459 96.3575 11.1441C97.2434 11.4461 97.9612 11.9064 98.5108 12.5249C99.0717 13.1472 99.4289 13.8649 99.5823 14.6779C99.7471 15.4948 99.6762 16.3518 99.3698 17.2489C99.0672 18.1346 98.5988 18.8561 97.9647 19.4132C97.3458 19.9629 96.622 20.3183 95.7934 20.4795C94.9687 20.6294 94.119 20.5552 93.2445 20.257ZM93.6111 19.1839C94.2585 19.4047 94.8805 19.4583 95.4773 19.3448C96.0779 19.2199 96.6094 18.9447 97.0717 18.5192C97.5494 18.0862 97.9065 17.5233 98.1431 16.8306C98.3836 16.1266 98.4455 15.463 98.3286 14.8399C98.2231 14.2208 97.969 13.684 97.5662 13.2297C97.1673 12.7641 96.6498 12.4228 96.0138 12.206C95.3777 11.9891 94.7594 11.9431 94.1588 12.0679C93.5621 12.1814 93.0269 12.449 92.5531 12.8707C92.0794 13.2923 91.7222 13.8552 91.4817 14.5593C91.2451 15.252 91.1833 15.9155 91.2963 16.5499C91.4131 17.173 91.671 17.7173 92.0699 18.183C92.4727 18.6373 92.9864 18.9709 93.6111 19.1839Z" fill="black"/>
<path d="M103.735 24.9606C103.028 24.5536 102.481 24.0244 102.095 23.373C101.715 22.7111 101.53 21.9748 101.54 21.1639C101.567 20.3486 101.838 19.4939 102.353 18.5998C102.869 17.7058 103.47 17.0478 104.156 16.6259C104.849 16.1936 105.574 15.981 106.332 15.9878C107.089 15.9947 107.827 16.2046 108.545 16.6176C109.325 17.0664 109.92 17.6442 110.33 18.3507C110.756 19.0529 110.963 19.8228 110.951 20.6605C110.945 21.4877 110.706 22.312 110.232 23.1333C109.753 23.965 109.157 24.591 108.443 25.0113C107.73 25.4316 106.96 25.6389 106.132 25.6333C105.314 25.6337 104.516 25.4094 103.735 24.9606ZM97.8084 25.4751L104.272 14.2627L105.333 14.8732L103.912 17.3371L102.859 18.9117L102.062 20.6545L98.9161 26.1125L97.8084 25.4751ZM104.224 23.9333C104.806 24.2684 105.401 24.4377 106.009 24.4411C106.622 24.4341 107.202 24.2693 107.748 23.9467C108.3 23.6137 108.759 23.1301 109.125 22.4959C109.49 21.8618 109.676 21.2277 109.681 20.5939C109.686 19.9601 109.538 19.3763 109.236 18.8427C108.934 18.3091 108.492 17.8747 107.91 17.5395C107.327 17.2044 106.724 17.0373 106.1 17.0383C105.487 17.0453 104.907 17.2101 104.361 17.5327C103.825 17.8613 103.374 18.3427 103.009 18.9769C102.643 19.611 102.45 20.2473 102.428 20.8855C102.423 21.5193 102.571 22.1031 102.873 22.6367C103.191 23.1659 103.641 23.5981 104.224 23.9333Z" fill="black"/>
<path d="M123.51 28.289C124.044 28.8416 124.402 29.4292 124.586 30.0518C124.787 30.6747 124.784 31.3108 124.577 31.9603C124.378 32.6183 123.951 33.2637 123.294 33.8965L119.34 37.7055L118.453 36.7859L122.315 33.0643C123.033 32.3733 123.398 31.6716 123.411 30.9593C123.441 30.2473 123.143 29.5675 122.518 28.92C122.051 28.4364 121.544 28.1091 120.995 27.938C120.463 27.7671 119.916 27.7614 119.352 27.9208C118.806 28.0806 118.274 28.4102 117.755 28.9098L114.177 32.3566L113.29 31.4371L120.095 24.8806L120.945 25.7612L119.079 27.5596L119.291 27.0799C119.992 26.8212 120.71 26.7961 121.445 27.0046C122.188 27.2047 122.877 27.6328 123.51 28.289Z" fill="black"/>
<path d="M123.464 43.6143C122.972 42.8469 122.699 42.0451 122.647 41.209C122.612 40.3765 122.784 39.5893 123.163 38.8474C123.553 38.099 124.141 37.4723 124.93 36.9673C125.728 36.4558 126.543 36.1825 127.376 36.1475C128.21 36.1124 128.992 36.2878 129.725 36.6735C130.457 37.0592 131.073 37.6409 131.572 38.4184C132.078 39.206 132.354 40.0129 132.399 40.8389C132.451 41.675 132.284 42.459 131.898 43.1908C131.519 43.9327 130.93 44.5594 130.132 45.0709C129.344 45.5759 128.529 45.8492 127.685 45.8907C126.859 45.9359 126.071 45.7638 125.322 45.3744C124.583 44.9786 123.964 44.3919 123.464 43.6143ZM124.419 43.0025C124.789 43.5781 125.242 44.0071 125.78 44.2895C126.328 44.5655 126.916 44.6808 127.543 44.6354C128.186 44.5936 128.816 44.3753 129.432 43.9803C130.059 43.5789 130.52 43.098 130.816 42.5376C131.119 41.9873 131.254 41.4091 131.221 40.8029C131.198 40.1903 131.006 39.6012 130.643 39.0357C130.28 38.4702 129.824 38.0495 129.276 37.7735C128.738 37.4911 128.153 37.3675 127.519 37.4028C126.886 37.4381 126.256 37.6564 125.63 38.0579C125.013 38.4528 124.552 38.9337 124.246 39.5006C123.95 40.061 123.813 40.6475 123.835 41.2601C123.868 41.8663 124.063 42.4471 124.419 43.0025Z" fill="black"/>
<path d="M127.865 51.1102L135.51 44.5138L135.932 45.6628L128.817 51.7198L128.625 51.196L138.003 51.3067L138.382 52.3375L131.286 58.4451L131.093 57.9213L140.459 57.9982L140.862 59.0966L130.755 58.9846L130.339 57.8524L136.989 52.0426L137.119 52.3975L128.28 52.2424L127.865 51.1102Z" fill="black"/>
</svg>
