<svg width="68" height="76" viewBox="0 0 68 76" fill="none" xmlns="http://www.w3.org/2000/svg">
<path d="M47.1463 31.6202C47.1895 31.3475 47.0034 31.0914 46.7307 31.0482L42.2861 30.3442C42.0134 30.301 41.7572 30.4871 41.714 30.7598C41.6708 31.0326 41.8569 31.2887 42.1297 31.3319L46.0804 31.9576L45.4547 35.9084C45.4115 36.1811 45.5976 36.4373 45.8703 36.4805C46.143 36.5237 46.3992 36.3376 46.4424 36.0648L47.1463 31.6202ZM24.2939 48.4045L46.9464 31.9465L46.3586 31.1375L23.7061 47.5955L24.2939 48.4045Z" fill="black"/>
<path d="M58.6659 40.5006C58.7289 39.9408 58.8661 39.4199 59.0774 38.9377C59.2973 38.4565 59.5438 38.0873 59.817 37.8301L60.4939 38.3244C60.2562 38.5769 60.0355 38.9097 59.832 39.323C59.6371 39.7372 59.513 40.1812 59.4596 40.6549C59.3869 41.3008 59.4335 41.7769 59.5996 42.0833C59.7743 42.3906 60.0296 42.5631 60.3655 42.6007C60.6153 42.6286 60.8183 42.5685 60.9746 42.4203C61.1384 42.2816 61.2694 42.087 61.3674 41.8363C61.474 41.5866 61.5711 41.3053 61.6586 40.9925C61.7462 40.6796 61.8424 40.3677 61.9472 40.0568C62.051 39.7544 62.182 39.4813 62.3403 39.2374C62.5072 38.9944 62.7162 38.8042 62.9672 38.6666C63.2172 38.5376 63.536 38.4947 63.9235 38.5381C64.2939 38.5795 64.6139 38.72 64.8834 38.9595C65.153 39.1989 65.3473 39.5259 65.4663 39.9404C65.593 40.3644 65.6238 40.8649 65.5588 41.442C65.5094 41.8812 65.3996 42.3137 65.2296 42.7394C65.0681 43.1661 64.8767 43.5109 64.6552 43.7739L63.9639 43.2911C64.2045 43.0128 64.3873 42.7062 64.5123 42.3713C64.6458 42.0375 64.732 41.6983 64.7708 41.3538C64.8396 40.7423 64.7829 40.2781 64.6005 39.9612C64.4258 39.6539 64.1748 39.4819 63.8475 39.4453C63.5892 39.4164 63.378 39.4712 63.2141 39.6099C63.0493 39.7571 62.9093 39.9551 62.794 40.2038C62.6865 40.4621 62.5894 40.7434 62.5028 41.0477C62.4152 41.3606 62.3152 41.6677 62.2028 41.969C62.098 42.28 61.9664 42.5574 61.8082 42.8013C61.6575 43.0548 61.4572 43.246 61.2072 43.375C60.9648 43.5136 60.6585 43.5622 60.2881 43.5208C59.8919 43.4764 59.56 43.3259 59.2924 43.0692C59.0324 42.8221 58.8443 42.4784 58.7282 42.0381C58.6197 41.6074 58.599 41.0949 58.6659 40.5006Z" fill="black"/>
<path d="M63.3463 50.1166C63.1393 50.6312 62.8575 51.0412 62.501 51.3467C62.1494 51.6635 61.7287 51.8499 61.239 51.9062C60.746 51.9704 60.1937 51.8803 59.5821 51.6358L55.9005 50.1638L56.245 49.3076L59.8422 50.7457C60.5101 51.0127 61.081 51.045 61.5549 50.8424C62.0336 50.6511 62.3942 50.254 62.6369 49.651C62.8181 49.2007 62.8841 48.7697 62.8349 48.3581C62.7905 47.9576 62.6325 47.5958 62.3608 47.2725C62.094 46.9605 61.7192 46.708 61.2363 46.5149L57.9047 45.183L58.2493 44.3267L67.206 47.9076L66.8614 48.7639L62.5038 47.0217L62.8977 46.9831C63.2755 47.3675 63.5042 47.8323 63.5837 48.3775C63.6714 48.9258 63.5922 49.5056 63.3463 50.1166Z" fill="black"/>
<path d="M53.4711 53.3089C53.8879 52.7989 54.378 52.4321 54.9412 52.2085C55.5058 51.9971 56.0859 51.9378 56.6815 52.0307C57.2839 52.1291 57.8474 52.3913 58.3722 52.8174C58.9037 53.249 59.2754 53.7461 59.4871 54.3088C59.6988 54.8714 59.7545 55.447 59.6542 56.0354C59.5539 56.6237 59.2926 57.1763 58.8703 57.693C58.4425 58.2164 57.9497 58.5866 57.3919 58.8035C56.8286 59.0271 56.2519 59.0891 55.6618 58.9895C55.0661 58.8966 54.5026 58.6343 53.971 58.2027C53.4463 57.7766 53.0746 57.2795 52.8562 56.7114C52.639 56.1554 52.5799 55.5772 52.679 54.9766C52.7847 54.3815 53.0488 53.8256 53.4711 53.3089ZM54.1069 53.8252C53.7943 54.2077 53.6014 54.6149 53.5283 55.0467C53.4619 55.484 53.5149 55.9122 53.6873 56.3313C53.8609 56.7625 54.1529 57.1447 54.5633 57.478C54.9805 57.8167 55.4151 58.0245 55.8672 58.1013C56.3138 58.1848 56.7418 58.1472 57.1513 57.9885C57.5676 57.8353 57.9293 57.5708 58.2364 57.195C58.5435 56.8192 58.7303 56.4127 58.7966 55.9754C58.8698 55.5435 58.8229 55.1147 58.656 54.6889C58.4891 54.2631 58.1971 53.8809 57.7799 53.5422C57.3695 53.2089 56.9349 53.0012 56.4761 52.9189C56.024 52.8421 55.5899 52.8803 55.1736 53.0335C54.7641 53.1922 54.4085 53.4561 54.1069 53.8252Z" fill="black"/>
<path d="M47.4506 58.7618C47.9413 58.4353 48.4598 58.2516 49.0061 58.2108C49.5573 58.1771 50.0942 58.2935 50.6168 58.5599C51.1371 58.8383 51.6046 59.2871 52.0194 59.9064C52.4341 60.5257 52.6684 61.1245 52.722 61.703C52.7805 62.2887 52.6861 62.8252 52.4388 63.3125C52.1915 63.7998 51.8189 64.2091 51.321 64.5404C50.7799 64.9005 50.2145 65.0998 49.6248 65.1382C49.0328 65.1887 48.467 65.0759 47.9275 64.7999C47.3928 64.5311 46.9349 64.1123 46.5539 63.5434C46.1681 62.9674 45.9531 62.3817 45.9091 61.7864C45.865 61.1911 45.9774 60.627 46.2464 60.0941C46.5081 59.566 46.9095 59.1219 47.4506 58.7618ZM49.0163 54.7686L54.2178 62.5346L53.4819 63.0244L52.3388 61.3178L51.655 60.1333L50.7799 59.0604L48.2479 55.28L49.0163 54.7686ZM47.9605 59.4063C47.5565 59.6751 47.256 60.0052 47.0591 60.3965C46.867 60.795 46.7881 61.2222 46.8224 61.6783C46.8615 62.1416 47.0281 62.5928 47.3223 63.0321C47.6165 63.4713 47.9683 63.7941 48.3778 64.0005C48.7872 64.2069 49.2134 64.2981 49.6563 64.2741C50.0991 64.25 50.5226 64.1036 50.9266 63.8347C51.3307 63.5658 51.6323 63.2298 51.8316 62.8265C52.0237 62.428 52.1026 62.0007 52.0683 61.5446C52.0269 61.0934 51.859 60.6481 51.5648 60.2089C51.2706 59.7696 50.92 59.4408 50.5129 59.2224C50.1035 59.016 49.6773 58.9248 49.2345 58.9489C48.7892 58.9849 48.3646 59.1374 47.9605 59.4063Z" fill="black"/>
<path d="M38.6036 69.3223C38.0555 69.4071 37.5592 69.3743 37.1147 69.2238C36.663 69.0832 36.2882 68.8168 35.9903 68.4244C35.6838 68.0333 35.4798 67.5124 35.3785 66.8616L34.7683 62.9438L35.6804 62.8026L36.2766 66.6305C36.3873 67.3413 36.6505 67.8486 37.0663 68.1526C37.4748 68.4665 38.0002 68.5738 38.6426 68.4744C39.1222 68.4001 39.5265 68.2367 39.8556 67.9841C40.1774 67.7414 40.4081 67.4206 40.5477 67.0219C40.6801 66.6331 40.7063 66.1818 40.6263 65.668L40.0741 62.1227L40.9863 61.9816L42.0366 68.7253L41.163 68.8605L40.8749 67.0108L41.0702 67.3357C40.9322 67.857 40.6489 68.291 40.2205 68.638C39.7935 68.9935 39.2545 69.2216 38.6036 69.3223Z" fill="black"/>
<path d="M30.7224 62.4809C31.3741 62.5766 31.9399 62.8087 32.4199 63.177C32.89 63.5527 33.237 64.0198 33.4611 64.5783C33.6838 65.1453 33.7458 65.7632 33.6469 66.432C33.5467 67.1093 33.3086 67.6831 32.9324 68.1534C32.5562 68.6237 32.0893 68.9668 31.5317 69.1827C30.9741 69.3986 30.3652 69.4581 29.705 69.3611C29.0362 69.2628 28.4661 69.0301 27.9947 68.663C27.5148 68.2947 27.167 67.8319 26.9516 67.2746C26.7275 66.7161 26.6656 66.0982 26.7658 65.4209C26.8647 64.7522 27.1028 64.1784 27.4803 63.6995C27.8479 63.228 28.3154 62.8806 28.8828 62.6573C29.449 62.4427 30.0622 62.3839 30.7224 62.4809ZM30.6026 63.2911C30.1139 63.2193 29.665 63.2628 29.256 63.4217C28.8458 63.5892 28.5043 63.8544 28.2316 64.2172C27.9491 64.5874 27.7692 65.034 27.6918 65.557C27.6132 66.0886 27.6562 66.5679 27.8208 66.995C27.9769 67.4209 28.2277 67.7687 28.5733 68.0385C28.9176 68.3168 29.3299 68.4913 29.81 68.5618C30.2902 68.6324 30.7354 68.5839 31.1457 68.4165C31.5546 68.2576 31.8998 67.9973 32.181 67.6357C32.4623 67.274 32.6422 66.8275 32.7208 66.2959C32.7982 65.7729 32.7552 65.2936 32.5918 64.8579C32.4272 64.4307 32.1727 64.078 31.8284 63.7997C31.4828 63.5299 31.0742 63.3604 30.6026 63.2911Z" fill="black"/>
<path d="M25.0311 61.3169L24.0352 68.5363L23.2575 68.1161L24.2232 61.4419L24.5778 61.6335L19.4374 66.0521L18.7397 65.6752L19.6712 58.9825L20.0257 59.1741L14.9082 63.6051L14.1647 63.2034L19.7013 58.4373L20.4676 58.8513L19.6362 65.1695L19.396 65.0398L24.2648 60.9029L25.0311 61.3169Z" fill="black"/>
<path d="M14.1091 52.7163C14.4395 53.1725 14.6888 53.6498 14.8571 54.148C15.0182 54.6513 15.0842 55.0896 15.055 55.463L14.22 55.5512C14.2262 55.2051 14.1655 54.8111 14.038 54.369C13.9034 53.932 13.6963 53.5204 13.4167 53.1344C13.0355 52.6079 12.6801 52.2871 12.3505 52.1719C12.014 52.0617 11.7085 52.1053 11.4341 52.3027C11.2301 52.4495 11.1201 52.6301 11.1041 52.8445C11.076 53.0569 11.1101 53.2886 11.2063 53.5397C11.2955 53.7958 11.413 54.0689 11.5589 54.359C11.7048 54.6491 11.8436 54.9442 11.9754 55.2444C12.1022 55.5376 12.189 55.8275 12.236 56.114C12.2759 56.4055 12.2492 56.6863 12.1559 56.9564C12.0574 57.2194 11.8499 57.4648 11.5333 57.6926C11.2308 57.9102 10.899 58.0209 10.5378 58.0245C10.1766 58.0281 9.81227 57.9166 9.44477 57.6899C9.06516 57.4612 8.70506 57.1117 8.36448 56.6414C8.10523 56.2834 7.89522 55.89 7.73446 55.4612C7.56667 55.0374 7.47628 54.654 7.4633 54.311L8.30116 54.2046C8.31023 54.5718 8.38127 54.921 8.51425 55.2524C8.6402 55.5889 8.80484 55.8975 9.00817 56.1783C9.36909 56.6766 9.7239 56.9819 10.0726 57.094C10.4092 57.2042 10.7111 57.1631 10.9785 56.9707C11.1895 56.8189 11.3091 56.6367 11.3372 56.4243C11.3602 56.2049 11.3306 55.9646 11.2485 55.7034C11.1542 55.4403 11.0367 55.1672 10.8959 54.8841C10.75 54.594 10.6172 54.2998 10.4976 54.0016C10.3657 53.7014 10.2764 53.408 10.2294 53.1215C10.1703 52.8331 10.19 52.5573 10.2884 52.2943C10.3747 52.0293 10.5691 51.788 10.8716 51.5704C11.1952 51.3375 11.5427 51.2263 11.9141 51.2367C12.2733 51.2452 12.6443 51.3733 13.0271 51.621C13.3977 51.8669 13.7584 52.2319 14.1091 52.7163Z" fill="black"/>
<path d="M4.16247 48.7561C3.96902 48.2362 3.90135 47.7438 3.95948 47.2788C4.00645 46.8087 4.19236 46.3888 4.51718 46.0192C4.83898 45.6415 5.30878 45.3384 5.92657 45.11L9.64549 43.7349L9.96742 44.6L6.33384 45.9435C5.65915 46.193 5.21458 46.5514 5.00013 47.0188C4.77452 47.481 4.77508 48.0167 5.00178 48.6259C5.17106 49.0808 5.41265 49.4442 5.72657 49.7162C6.02934 49.9831 6.39026 50.1454 6.80932 50.2029C7.21723 50.2554 7.66505 50.1915 8.15278 50.0111L11.5181 48.7668L11.84 49.6318L2.79267 52.9771L2.47074 52.112L6.87249 50.4845L6.60675 50.7768C6.06784 50.7451 5.5852 50.5539 5.15882 50.2034C4.72432 49.8558 4.3922 49.3734 4.16247 48.7561Z" fill="black"/>
<path d="M9.30905 39.8036C9.34473 40.4613 9.22977 41.0621 8.96416 41.6058C8.68944 42.1414 8.30067 42.5746 7.79785 42.9055C7.28638 43.2368 6.69314 43.4207 6.01812 43.457C5.33444 43.4939 4.72477 43.3749 4.18909 43.1C3.65341 42.8251 3.22437 42.4359 2.90196 41.9326C2.57956 41.4292 2.40028 40.8443 2.36413 40.178C2.32751 39.5029 2.44224 38.8979 2.70831 38.3628C2.97391 37.819 3.35835 37.3861 3.86164 37.0638C4.36445 36.733 4.9577 36.5491 5.64137 36.5123C6.31639 36.4759 6.92607 36.5949 7.4704 36.8693C8.00561 37.1356 8.43898 37.5245 8.77051 38.0361C9.09339 38.5481 9.2729 39.1373 9.30905 39.8036ZM8.49124 39.8477C8.46448 39.3544 8.33259 38.9232 8.09558 38.5541C7.84992 38.1855 7.52217 37.9037 7.11235 37.7088C6.6934 37.5057 6.21997 37.4184 5.69207 37.4469C5.15552 37.4758 4.6943 37.6135 4.30842 37.86C3.92207 38.0978 3.63104 38.4129 3.43535 38.8053C3.231 39.1982 3.14197 39.637 3.16826 40.1216C3.19455 40.6062 3.33052 41.0328 3.57619 41.4015C3.81319 41.7706 4.13685 42.0569 4.54714 42.2605C4.95744 42.464 5.43086 42.5513 5.96742 42.5224C6.49532 42.494 6.95654 42.3563 7.35107 42.1094C7.73696 41.8629 8.03207 41.5432 8.23642 41.1503C8.43212 40.7579 8.51706 40.3237 8.49124 39.8477Z" fill="black"/>
<path d="M10.0741 31.7089C9.93033 32.2805 9.66999 32.7648 9.29307 33.1619C8.90773 33.557 8.43215 33.8312 7.8663 33.9846C7.29417 34.1274 6.64655 34.1085 5.92346 33.9278C5.20036 33.7471 4.6246 33.4603 4.19617 33.0674C3.75934 32.6724 3.46873 32.2111 3.32435 31.6837C3.17998 31.1563 3.18072 30.6027 3.32659 30.0227C3.48515 29.3923 3.76973 28.8649 4.18033 28.4405C4.58464 28.0055 5.07919 27.7093 5.66396 27.5517C6.24032 27.392 6.86062 27.3951 7.52486 27.5611C8.19751 27.7292 8.75014 28.0192 9.18274 28.431C9.61535 28.8429 9.91117 29.3367 10.0702 29.9124C10.2313 30.4797 10.2326 31.0786 10.0741 31.7089ZM11.5984 35.7212L2.53029 33.4551L2.74592 32.5978L4.73864 33.0957L6.04072 33.5149L7.40931 33.723L11.8236 34.8261L11.5984 35.7212ZM9.26367 31.5734C9.38205 31.1027 9.38266 30.6562 9.26547 30.2339C9.13988 29.8094 8.91118 29.4396 8.57938 29.1244C8.23916 28.8072 7.81261 28.5844 7.29971 28.4563C6.78682 28.3281 6.30951 28.3249 5.86777 28.4468C5.42603 28.5687 5.04935 28.7872 4.73772 29.1024C4.42609 29.4176 4.21108 29.8105 4.09269 30.2812C3.9743 30.7518 3.97685 31.2036 4.10033 31.6365C4.22592 32.0609 4.45462 32.4307 4.78642 32.7459C5.12034 33.0527 5.54375 33.2701 6.05664 33.3983C6.56954 33.5265 7.05 33.5349 7.49803 33.4235C7.93977 33.3017 8.31645 33.0831 8.62808 32.768C8.93342 32.4423 9.14528 32.0441 9.26367 31.5734Z" fill="black"/>
<path d="M9.49727 17.9983C9.8467 17.5676 10.2368 17.2587 10.6676 17.0716C11.097 16.8723 11.5542 16.8177 12.039 16.9079C12.5293 16.9914 13.0308 17.2398 13.5437 17.6531L16.6308 20.1413L16.0493 20.8581L13.033 18.427C12.473 17.9757 11.9366 17.7771 11.4238 17.8314C10.9098 17.8735 10.4481 18.1469 10.0386 18.6517C9.73284 19.0286 9.54291 19.421 9.46879 19.8287C9.39339 20.2243 9.43798 20.6165 9.60256 21.0051C9.76586 21.3816 10.0499 21.733 10.4548 22.0593L13.2484 24.3109L12.6669 25.0277L7.35301 20.7448L7.90992 20.0583L9.36745 21.233L9.00408 21.1238C8.75595 20.6456 8.67406 20.1343 8.75842 19.5901C8.83604 19.0405 9.08232 18.5099 9.49727 17.9983Z" fill="black"/>
<path d="M19.8282 17.8418C19.2812 18.2087 18.7057 18.4173 18.1018 18.4676C17.5002 18.5058 16.928 18.3939 16.3851 18.1319C15.8374 17.8627 15.3744 17.448 14.9962 16.8877C14.6131 16.3203 14.402 15.7366 14.363 15.1366C14.3239 14.5367 14.4379 13.9697 14.7049 13.4359C14.9719 12.902 15.3824 12.4492 15.9367 12.0774C16.4981 11.7009 17.0771 11.4899 17.6739 11.4444C18.2778 11.3942 18.8476 11.5024 19.3832 11.7693C19.9261 12.0313 20.3891 12.446 20.7722 13.0135C21.1504 13.5738 21.3615 14.1575 21.4054 14.7646C21.4516 15.3597 21.3401 15.9302 21.0708 16.4761C20.7966 17.0148 20.3824 17.4701 19.8282 17.8418ZM19.3699 17.163C19.7802 16.8878 20.0831 16.5542 20.2785 16.1622C20.4691 15.7631 20.5429 15.3379 20.4997 14.8868C20.459 14.4237 20.2907 13.973 19.9949 13.5349C19.6942 13.0895 19.3388 12.7644 18.9286 12.5595C18.5256 12.3498 18.1051 12.2613 17.6672 12.2942C17.2244 12.3198 16.8015 12.4679 16.3984 12.7382C15.9954 13.0086 15.6985 13.3433 15.5079 13.7425C15.3125 14.1345 15.2327 14.5585 15.2686 15.0144C15.3046 15.4703 15.4729 15.921 15.7735 16.3663C16.0693 16.8045 16.4248 17.1296 16.8398 17.3417C17.25 17.5466 17.6765 17.6362 18.1193 17.6106C18.5572 17.5777 18.9741 17.4285 19.3699 17.163Z" fill="black"/>
<path d="M24.9337 14.8097L20.8175 8.78344L21.6767 8.57562L25.4486 14.1769L25.0569 14.2716L25.897 7.55489L26.6678 7.36846L30.4776 12.9606L30.0859 13.0553L30.9008 6.34467L31.7221 6.14602L30.8219 13.3855L29.9753 13.5903L26.3431 8.3431L26.6085 8.27893L25.7803 14.6049L24.9337 14.8097Z" fill="black"/>
<path d="M38.7915 13.8561C38.2407 13.7383 37.7359 13.5505 37.2771 13.2929C36.8203 13.0268 36.4775 12.7452 36.2489 12.4481L36.8089 11.8235C37.0363 12.0848 37.3455 12.3371 37.7364 12.5802C38.1292 12.8149 38.5586 12.9821 39.0247 13.0818C39.6603 13.2177 40.139 13.2182 40.4606 13.0831C40.784 12.9396 40.9813 12.7026 41.0525 12.3722C41.1054 12.1265 41.0659 11.9186 40.9341 11.7486C40.8125 11.572 40.6319 11.4226 40.3923 11.3004C40.1544 11.1698 39.8842 11.0455 39.5816 10.9276C39.2789 10.8097 38.9781 10.6833 38.6792 10.5484C38.3886 10.4154 38.1299 10.2582 37.9031 10.0767C37.678 9.88674 37.5096 9.66017 37.3978 9.39696C37.2945 9.13558 37.2839 8.81425 37.366 8.43298C37.4444 8.06867 37.6163 7.76422 37.8817 7.51966C38.1472 7.2751 38.4921 7.11403 38.9166 7.03644C39.3514 6.95218 39.8527 6.97079 40.4206 7.09224C40.8528 7.18469 41.2722 7.33645 41.6789 7.54751C42.0874 7.75011 42.4115 7.97451 42.651 8.22073L42.101 8.86084C41.8481 8.59405 41.5613 8.38204 41.2406 8.22481C40.9216 8.0591 40.5927 7.93999 40.2537 7.86748C39.6519 7.73877 39.1842 7.74951 38.8505 7.89969C38.527 8.04321 38.3306 8.27595 38.2613 8.59791C38.2066 8.85208 38.24 9.0675 38.3615 9.24417C38.4916 9.42264 38.6746 9.58143 38.9106 9.72054C39.1569 9.85299 39.4271 9.97726 39.7213 10.0934C40.0239 10.2113 40.3196 10.341 40.6082 10.4825C40.9072 10.6173 41.1702 10.7755 41.397 10.957C41.6342 11.1318 41.8045 11.3499 41.9078 11.6113C42.0214 11.866 42.039 12.1755 41.9605 12.5398C41.8766 12.9296 41.6935 13.2449 41.4111 13.4858C41.1391 13.7201 40.7781 13.8733 40.3281 13.9455C39.8885 14.011 39.3763 13.9812 38.7915 13.8561Z" fill="black"/>
<path d="M48.9315 10.1516C49.4233 10.4081 49.8034 10.7284 50.0716 11.1125C50.3515 11.493 50.4945 11.9292 50.5006 12.4211C50.5145 12.917 50.3684 13.4566 50.0623 14.0398L48.2199 17.5508L47.4015 17.1241L49.2016 13.6937C49.5358 13.0567 49.6261 12.493 49.4725 12.0024C49.3306 11.5081 48.9714 11.1107 48.3951 10.8102C47.9647 10.5859 47.5418 10.4778 47.1264 10.486C46.7228 10.4906 46.346 10.6118 45.9961 10.8496C45.6578 11.0838 45.3679 11.4311 45.1263 11.8916L43.4591 15.0687L42.6407 14.642L47.1228 6.10056L47.9412 6.52727L45.7606 10.6829L45.7623 10.2879C46.184 9.95065 46.6706 9.76942 47.2221 9.74421C47.7777 9.71132 48.3475 9.84713 48.9315 10.1516Z" fill="black"/>
<path d="M51.1599 20.2557C50.6917 19.7924 50.3737 19.2705 50.2058 18.6898C50.0503 18.1092 50.0482 17.5279 50.1995 16.9461C50.357 16.3582 50.6742 15.8247 51.1512 15.3458C51.6344 14.8607 52.1673 14.5406 52.7498 14.3855C53.3324 14.2304 53.9125 14.2314 54.49 14.3883C55.0676 14.5453 55.5935 14.8585 56.0679 15.3279C56.5484 15.8034 56.8695 16.3284 57.0312 16.9029C57.199 17.4836 57.2042 18.0617 57.0467 18.6374C56.8953 19.2192 56.5781 19.7527 56.0949 20.2378C55.6179 20.7168 55.085 21.0369 54.4963 21.1981C53.9199 21.3592 53.3368 21.3614 52.747 21.2044C52.1633 21.0414 51.6342 20.7251 51.1599 20.2557ZM51.7378 19.6754C52.089 20.0229 52.4765 20.254 52.9005 20.3687C53.3305 20.4773 53.7632 20.4665 54.1986 20.3365C54.6462 20.2064 55.0565 19.954 55.4296 19.5794C55.8088 19.1987 56.059 18.7879 56.1801 18.3469C56.3075 17.912 56.312 17.4837 56.1939 17.062C56.0818 16.6341 55.8533 16.2495 55.5083 15.9081C55.1634 15.5667 54.7758 15.3418 54.3458 15.2332C53.9218 15.1185 53.4891 15.1231 53.0476 15.2471C52.6061 15.3711 52.1957 15.6234 51.8166 16.0041C51.4435 16.3787 51.1933 16.7895 51.066 17.2367C50.9449 17.6776 50.9403 18.112 51.0524 18.5399C51.1705 18.9617 51.399 19.3402 51.7378 19.6754Z" fill="black"/>
<path d="M55.9845 26.6486C55.7049 26.1298 55.5704 25.5972 55.5811 25.0508C55.5994 24.5003 55.7661 23.9784 56.0812 23.4853C56.408 22.9957 56.8999 22.5749 57.557 22.223C58.214 21.8712 58.8337 21.6966 59.4161 21.6993C60.0061 21.698 60.5326 21.8437 60.9956 22.1364C61.4586 22.4292 61.8319 22.8388 62.1157 23.3652C62.4241 23.9374 62.5697 24.5181 62.5526 25.1073C62.5472 25.7 62.3814 26.2509 62.0551 26.7599C61.7365 27.2647 61.2755 27.6788 60.6719 28.002C60.0607 28.3293 59.456 28.4861 58.8578 28.4722C58.2595 28.4583 57.7072 28.292 57.2007 27.9734C56.6983 27.6624 56.2929 27.2208 55.9845 26.6486ZM52.147 24.7073L60.3868 20.2947L60.8062 21.0728L58.9955 22.0425L57.7491 22.6068L56.596 23.3718L52.5849 25.5198L52.147 24.7073ZM56.6757 26.2047C56.9059 26.632 57.207 26.9623 57.579 27.1957C57.9586 27.425 58.3775 27.5447 58.8359 27.5548C59.3019 27.5609 59.7679 27.4391 60.2339 27.1895C60.7 26.94 61.0553 26.6219 61.2998 26.2353C61.5443 25.8488 61.6755 25.4344 61.6932 24.9924C61.7109 24.5503 61.6046 24.1157 61.3743 23.6885C61.144 23.2612 60.8371 22.9292 60.4534 22.6922C60.0738 22.4629 59.6548 22.3432 59.1965 22.3331C58.7422 22.3306 58.2821 22.4541 57.816 22.7037C57.35 22.9533 56.9888 23.2696 56.7325 23.6526C56.488 24.0391 56.3569 24.4535 56.3392 24.8955C56.3332 25.3411 56.4454 25.7775 56.6757 26.2047Z" fill="black"/>
</svg>
