<svg width="28" height="28" viewBox="0 0 28 28" fill="none" xmlns="http://www.w3.org/2000/svg">
<path d="M23.0403 5.48381L20.1116 2.55818C19.7541 2.20072 19.2756 2 18.7696 2C18.2636 2 17.7851 2.19798 17.4276 2.55818L14.2733 5.70654C13.9158 6.06399 13.7151 6.54518 13.7151 7.05112C13.7151 7.55981 13.9131 8.0355 14.2733 8.3957L16.7373 10.8621C16.176 12.1698 15.3695 13.358 14.3613 14.3625C13.352 15.3771 12.1723 16.1772 10.8633 16.7437L8.39928 14.2772C8.04178 13.9198 7.56327 13.719 7.05727 13.719C6.80769 13.7181 6.56043 13.767 6.32999 13.8629C6.09955 13.9587 5.89056 14.0996 5.71527 14.2772L2.55825 17.4256C2.20075 17.783 2 18.2642 2 18.7702C2 19.2788 2.198 19.7545 2.55825 20.1147L5.48427 23.0404C6.09477 23.6508 6.93627 24 7.79978 24C7.97853 24 8.15178 23.9863 8.32778 23.956C11.9688 23.3566 15.5823 21.4181 18.5001 18.5034C21.4151 15.5833 23.3511 11.9703 23.9561 8.32696C24.1293 7.29309 23.7828 6.22897 23.0403 5.48381ZM22.0063 7.99975C21.4701 11.2416 19.7266 14.4752 17.1003 17.1011C14.4741 19.727 11.2428 21.4703 8.00053 22.0065C7.59352 22.0752 7.17552 21.9378 6.87852 21.6435L4.00476 18.7702L7.05177 15.7208L10.3463 19.0204L10.371 19.0451L10.965 18.8251C12.7661 18.163 14.4016 17.1173 15.7583 15.7603C17.1149 14.4034 18.1603 12.7677 18.8218 10.9666L19.0418 10.3727L15.7198 7.05387L18.7668 4.0045L21.6406 6.87789C21.9376 7.17485 22.0751 7.5928 22.0063 7.99975Z" fill="#0E0E0E"/>
</svg>
