<svg width="367" height="202" viewBox="0 0 367 202" fill="none" xmlns="http://www.w3.org/2000/svg">
<g opacity="0.504511">
<path opacity="0.504511" fill-rule="evenodd" clip-rule="evenodd" d="M296.683 161.594C300.088 184.894 217.522 200.092 146.456 189.486C75.3898 178.879 42.7881 137.46 76.6997 115.391C110.611 93.3209 293.278 138.293 296.683 161.594Z" fill="#F58B3D"/>
</g>
<path fill-rule="evenodd" clip-rule="evenodd" d="M194.545 64.4997C195.83 63.6011 197.823 64.1736 199.116 64.7041C199.615 64.9085 200.888 65.5627 201.833 66.2989C201.708 65.7888 201.597 65.2739 201.499 64.7549C201.1 62.6211 200.825 60.4467 200.692 58.2851C200.658 57.7211 200.703 57.0913 200.748 56.453V56.452C200.763 56.2361 200.779 56.0191 200.792 55.8035C200.74 55.7527 200.705 55.6822 200.69 55.5869C200.685 55.6266 200.682 55.6581 200.679 55.6825C200.675 55.7218 200.673 55.7415 200.667 55.7429C200.66 55.7446 200.648 55.728 200.624 55.6944C200.615 55.6815 200.604 55.6659 200.59 55.648C199.635 54.3399 198.832 52.8654 198.722 51.2448C198.628 49.8706 199.862 47.2701 201.611 49.0703C202.394 49.8744 202.19 55.5208 201.015 55.8666C201.329 57.7377 201.724 59.6057 202.218 61.4497C202.292 61.4378 202.368 61.4368 202.442 61.446C202.435 60.9877 202.435 60.4874 202.455 60.3152C202.631 58.8332 203.984 55.8246 206.137 56.4086C207.791 56.8577 206.777 58.7058 206.214 59.5145C205.308 60.8168 204.283 61.3805 202.984 62.0578C202.958 62.3378 202.761 62.5005 202.528 62.5533C203.398 65.5315 204.54 68.4361 206.035 71.18L206.074 71.0055C206.264 70.1726 206.485 69.2018 206.625 68.9978C207.358 67.9304 208.98 66.6267 210.475 67.2582C213.616 68.5866 210.207 72.404 207.533 72.8193C207.422 72.9599 207.304 73.0731 207.179 73.1379C207.699 73.966 208.254 74.7771 208.848 75.5672C209.739 76.7557 210.697 77.94 211.701 79.1179C211.732 78.1966 212.129 76.1435 212.242 75.9228C212.928 74.5832 214.904 73.2047 216.507 74.1565C218.311 75.2296 216.675 77.257 215.647 78.1746C215.225 78.5508 213.14 79.9297 212.405 79.9358C214.83 82.713 217.508 85.4423 220.23 88.0734C220.004 86.8955 219.71 83.6522 219.743 83.2923C219.912 81.4341 221.245 78.462 223.874 79.1864C226.423 79.8877 225.295 82.975 224.422 84.4468C223.894 85.3376 223.163 86.2426 222.281 86.8639C222.123 86.9758 221.915 87.0673 221.708 87.1585C221.458 87.2683 221.209 87.3782 221.046 87.5236C220.901 87.6531 220.856 87.8018 220.812 87.9493C220.765 88.1049 220.719 88.2591 220.555 88.3883C222.026 89.8038 223.508 91.1898 224.968 92.5375C225.657 93.1734 226.359 93.7971 227.067 94.413C227.455 94.2659 228.007 94.4595 227.978 94.9622C227.974 95.035 227.956 95.0981 227.931 95.1557C228.468 95.613 229.008 96.0672 229.553 96.5163C229.54 96.3855 229.544 96.2007 229.569 95.9462C229.177 96.4567 229.193 95.713 229.206 95.1459C229.21 94.9455 229.214 94.7676 229.199 94.6744C229.142 94.31 229.067 93.9493 228.993 93.589C228.834 92.8196 228.675 92.0528 228.683 91.2586C228.7 89.5729 229.866 86.7473 232.32 87.7514C234.575 88.6723 233.755 91.1705 232.904 92.7369C232.365 93.728 231.628 94.613 230.857 95.4601C230.72 95.6113 230.567 95.816 230.417 96.019C230.192 96.32 229.972 96.6163 229.808 96.7268C231.903 98.446 234.047 100.115 236.191 101.783L236.192 101.785C237.152 102.532 238.112 103.279 239.067 104.031C239.109 103.866 239.144 103.702 239.173 103.549C239.113 103.611 239.032 103.64 238.928 103.634C238.9 103.507 238.86 103.339 238.811 103.137C238.221 100.672 236.423 93.1639 241.292 94.6191C244.859 95.6882 242.341 102.226 239.68 104.513C241.295 105.79 242.894 107.084 244.456 108.415C245.586 109.379 246.683 110.376 247.738 111.406C247.192 110.072 246.678 108.346 247.016 106.972C247.507 104.972 249.81 103.084 252.059 104.222C254.863 105.646 252.706 107.592 250.683 109.416C249.651 110.348 248.653 111.248 248.369 112.03C251.722 115.409 254.586 119.162 256.499 123.438C258.58 128.087 260.512 134.335 259.443 139.536C259.64 137.249 258.797 134.377 258.204 132.36C258.123 132.086 258.048 131.827 257.979 131.588C257.089 128.459 255.825 125.416 254.158 122.567C251.489 118.004 247.962 114.131 243.892 110.615C242.965 110.911 241.958 111.459 241.124 111.912C240.613 112.19 240.166 112.433 239.843 112.561C238.286 113.176 235.295 114.059 234.303 112.12C233.327 110.214 235.818 109.147 237.361 108.72C238.853 108.308 240.197 108.357 241.588 108.695C239.434 106.945 237.227 105.251 235.02 103.557L235.019 103.556C234.613 103.244 234.208 102.933 233.802 102.621C233.241 103.042 232.622 103.652 231.964 104.298C229.876 106.351 227.402 108.782 225.193 106.796C221.859 103.798 228.235 100.75 230.952 100.988C231.285 101.017 231.608 101.082 231.922 101.169C229.152 99.0152 226.425 96.8163 223.845 94.4629C223.382 94.5405 222.645 95.1642 221.76 95.914C219.771 97.5986 217.032 99.9178 214.969 98.0918C213.479 96.7736 213.989 94.7205 215.429 93.5466C216.874 92.3677 218.969 92.3697 220.75 92.7667C221.52 92.9375 222.23 93.2636 222.892 93.6609C222.92 93.6622 222.947 93.6636 222.974 93.6649C220.436 91.3247 217.882 88.932 215.423 86.4575C215.38 86.4701 215.336 86.4833 215.292 86.4965C215.143 86.6633 214.894 86.7243 214.666 86.6873C214.54 86.727 214.412 86.7677 214.281 86.809C212.332 87.4249 209.828 88.2167 207.886 87.8754C206.457 87.6239 205.16 86.5595 206.37 85.2491C207.353 84.1834 210.022 84.3363 211.323 84.5888C211.958 84.7122 212.65 85.0695 213.343 85.4281C213.635 85.5786 213.927 85.7294 214.215 85.8633C214.29 85.725 214.421 85.6362 214.569 85.5935C212.14 83.1068 209.823 80.5344 207.721 77.8502C207.084 77.9403 206.379 78.1966 205.651 78.4606C203.9 79.0962 202.02 79.7782 200.671 78.3091C198.679 76.1404 202.425 74.8744 204.205 75.0805C204.806 75.15 205.399 75.3059 205.972 75.5123C204.442 73.3023 203.273 70.94 202.453 68.4588C202.445 68.4625 202.438 68.4663 202.43 68.47V68.4703C202.419 68.4761 202.407 68.4822 202.393 68.488C202.405 68.4815 202.416 68.4754 202.427 68.469C202.435 68.4642 202.443 68.4595 202.451 68.4547C202.369 68.2066 202.291 67.9575 202.216 67.707C202.077 67.6361 201.947 67.5839 201.885 67.5626C202.694 68.0734 199.281 68.3236 198.642 68.3703C197.229 68.4737 195.336 68.5124 194.299 67.4517C193.429 66.5609 193.48 65.2451 194.545 64.4997ZM259.595 139.544C259.535 140.297 259.386 140.988 259.109 141.557C259.317 140.909 259.476 140.235 259.595 139.544Z" fill="#F58B3D"/>
<path opacity="0.2" fill-rule="evenodd" clip-rule="evenodd" d="M130.391 16.3588C129.454 15.7095 127.998 16.1243 127.054 16.5082C126.69 16.6563 125.76 17.1297 125.07 17.6624C125.161 17.2934 125.243 16.9211 125.314 16.5458C125.607 15.0027 125.808 13.4303 125.906 11.8671C125.931 11.4594 125.899 11.0039 125.866 10.5425V10.5421C125.854 10.3859 125.843 10.229 125.834 10.073C125.872 10.0361 125.898 9.98513 125.909 9.91615C125.912 9.94476 125.914 9.96771 125.916 9.98524C125.919 10.0136 125.92 10.0279 125.926 10.029C125.93 10.0302 125.939 10.0181 125.957 9.99395C125.963 9.98456 125.972 9.97334 125.981 9.96036C126.68 9.014 127.266 7.94771 127.347 6.77584C127.416 5.78196 126.516 3.90196 125.239 5.2043C124.667 5.78593 124.813 9.8688 125.671 10.1187C125.441 11.4717 125.152 12.8225 124.79 14.1561C124.736 14.1475 124.681 14.1467 124.627 14.1535C124.632 13.822 124.633 13.4602 124.618 13.3358C124.49 12.2643 123.503 10.0892 121.932 10.5123C120.723 10.8375 121.463 12.1734 121.874 12.7581C122.535 13.6994 123.283 14.1068 124.231 14.5961C124.25 14.7984 124.394 14.916 124.563 14.9542C123.928 17.108 123.093 19.2088 122 21.1933L121.971 21.0672C121.833 20.465 121.671 19.763 121.569 19.6156C121.035 18.844 119.851 17.9019 118.759 18.3591C116.465 19.3205 118.953 22.0798 120.905 22.3791C120.986 22.4808 121.072 22.5625 121.164 22.6094C120.784 23.2084 120.378 23.7951 119.944 24.3665C119.293 25.2262 118.593 26.0831 117.86 26.935C117.837 26.2689 117.548 24.7844 117.466 24.6249C116.966 23.6565 115.523 22.6604 114.352 23.3491C113.035 24.1256 114.228 25.5912 114.979 26.2544C115.286 26.5263 116.808 27.5225 117.345 27.5268C115.573 29.5358 113.617 31.5103 111.628 33.4136C111.794 32.5618 112.01 30.2165 111.986 29.9562C111.864 28.6127 110.891 26.4641 108.972 26.9886C107.11 27.4967 107.932 29.7287 108.569 30.7927C108.955 31.4368 109.488 32.091 110.131 32.5397C110.247 32.6208 110.399 32.6865 110.55 32.7526C110.732 32.8319 110.914 32.9112 111.033 33.0163C111.139 33.1099 111.171 33.2173 111.203 33.3241C111.237 33.4366 111.271 33.5482 111.391 33.6414C110.316 34.6654 109.234 35.6684 108.167 36.6433C107.664 37.1032 107.151 37.5547 106.634 38.0001C106.351 37.894 105.947 38.034 105.968 38.3974C105.971 38.4503 105.985 38.4957 106.003 38.5374C105.611 38.8682 105.216 39.1967 104.818 39.5218C104.828 39.4272 104.825 39.2936 104.807 39.1096C105.093 39.4787 105.081 38.9408 105.072 38.531C105.069 38.3859 105.066 38.2571 105.077 38.19C105.119 37.9262 105.174 37.6656 105.228 37.4049C105.345 36.8487 105.461 36.2938 105.455 35.7196C105.443 34.501 104.593 32.4581 102.801 33.1848C101.154 33.8515 101.752 35.6579 102.373 36.79C102.766 37.5066 103.304 38.1462 103.866 38.7587C103.966 38.8679 104.078 39.016 104.188 39.1624C104.351 39.3801 104.512 39.5943 104.632 39.6743C103.101 40.9179 101.536 42.1253 99.9699 43.3327H99.9695L99.9691 43.3331C99.2674 43.8741 98.5661 44.4147 97.8678 44.9588C97.8378 44.8394 97.8126 44.7211 97.7911 44.6103C97.8348 44.655 97.8941 44.6761 97.9704 44.672C97.9908 44.5805 98.0201 44.4588 98.0556 44.3127C98.4876 42.5301 99.8035 37.0998 96.2481 38.154C93.6429 38.9282 95.4786 43.6551 97.4203 45.3079C96.241 46.2316 95.0726 47.1674 93.9319 48.1311C93.1061 48.828 92.3051 49.5494 91.5342 50.2944C91.9336 49.3297 92.3096 48.0813 92.0636 47.0878C91.7057 45.6424 90.0245 44.2781 88.3822 45.1015C86.3346 46.1326 87.9087 47.5383 89.3847 48.8568C90.1382 49.53 90.8662 50.1805 91.0737 50.7466C88.6237 53.1905 86.5313 55.9056 85.1328 58.9977C83.6116 62.3605 82.1986 66.8786 82.9766 70.6398C82.8336 68.986 83.4505 66.9088 83.8839 65.4502C83.9432 65.2516 83.9988 65.0645 84.0484 64.8913C84.6997 62.629 85.6244 60.4278 86.8421 58.3675C88.793 55.0674 91.3693 52.2655 94.3431 49.7212C95.0196 49.9348 95.7546 50.3307 96.3633 50.6585C96.7364 50.8595 97.0624 51.035 97.298 51.1272C98.435 51.572 100.618 52.2089 101.344 50.8066C102.057 49.4273 100.239 48.6572 99.1122 48.3487C98.0234 48.0511 97.0416 48.0877 96.0254 48.3325C97.5996 47.0664 99.2119 45.8401 100.824 44.6144C101.121 44.389 101.417 44.1635 101.713 43.9378C102.123 44.2422 102.575 44.6825 103.055 45.1499C104.579 46.6332 106.383 48.3908 107.997 46.9532C110.433 44.7842 105.779 42.5829 103.795 42.7562C103.551 42.7772 103.316 42.824 103.086 42.8873C105.11 41.3284 107.102 39.7377 108.986 38.035C109.324 38.091 109.862 38.5418 110.508 39.0835H110.508C111.96 40.301 113.959 41.9772 115.466 40.6559C116.554 39.7024 116.183 38.2181 115.132 37.3697C114.077 36.5175 112.547 36.5199 111.247 36.8077C110.685 36.9314 110.166 37.1673 109.683 37.4547C109.662 37.4558 109.642 37.4568 109.623 37.4578C111.477 35.7647 113.342 34.0336 115.139 32.2435C115.17 32.2526 115.203 32.2621 115.235 32.2716C115.343 32.3923 115.525 32.4364 115.692 32.4096C115.783 32.4377 115.876 32.4669 115.971 32.4967L115.973 32.4974C117.395 32.9421 119.223 33.5139 120.641 33.2661C121.685 33.0841 122.632 32.314 121.749 31.3666C121.032 30.5965 119.083 30.708 118.133 30.891C117.669 30.9805 117.164 31.2391 116.658 31.4984C116.445 31.6076 116.232 31.7167 116.021 31.8137C115.967 31.7137 115.871 31.6493 115.763 31.6184C117.537 29.8195 119.23 27.9588 120.766 26.017C121.231 26.0821 121.746 26.267 122.277 26.4577C123.556 26.9166 124.928 27.4092 125.913 26.3466C127.368 24.7776 124.634 23.8635 123.334 24.013C122.895 24.0635 122.462 24.1766 122.044 24.3258C123.162 22.7273 124.016 21.0188 124.616 19.2245C124.622 19.2272 124.627 19.2299 124.633 19.2326C124.641 19.2369 124.65 19.2412 124.66 19.2453C124.651 19.2409 124.643 19.2363 124.635 19.2317C124.629 19.2282 124.623 19.2249 124.617 19.2215C124.677 19.042 124.735 18.8617 124.789 18.6807C124.891 18.6294 124.986 18.5916 125.031 18.5761C124.44 18.9458 126.932 19.1255 127.399 19.1591C128.43 19.2333 129.812 19.2606 130.57 18.4934C131.206 17.849 131.169 16.8974 130.391 16.3588ZM82.8221 70.4913C82.8677 70.9937 83.0029 71.4519 83.2697 71.8275C83.0741 71.3984 82.9273 70.9513 82.8221 70.4913Z" fill="#F1F447"/>
<g opacity="0.7">
<path opacity="0.7" fill-rule="evenodd" clip-rule="evenodd" d="M231.725 104.978C236.783 104.738 243.038 107.439 243.578 112.469C243.97 116.124 243.849 119.769 244.455 123.418C244.94 126.335 245.966 129.135 247.365 131.791C248.711 134.346 251.501 136.521 252.227 139.25C252.69 140.99 252.431 143.436 251.793 145.137C251.017 147.205 251.43 147.042 252.976 148.777C256.005 152.178 258.733 155.666 260.662 159.728C263.441 165.578 265.263 172.417 264.231 178.821C264.1 179.634 263.945 182.552 262.721 182.756C261.353 182.985 261.993 181.316 262.066 180.776C262.531 177.336 262.944 174.329 262.383 170.835C260.218 157.354 249.648 148.472 242.766 137.031C242.387 136.441 241.589 135.036 241.033 134.109C240.156 132.645 239.275 129.861 238.088 128.776C235.853 126.732 237.908 130.841 238.343 131.626C238.894 132.618 239.5 133.673 240.065 134.542C242.647 138.573 245.529 142.973 248.196 147.129C236.662 149.533 228.539 136.846 225.443 128.505C222.893 121.633 219.842 105.566 231.725 104.978Z" fill="#B45661"/>
<path opacity="0.7" fill-rule="evenodd" clip-rule="evenodd" d="M299.515 92.2161C291.061 92.83 285.632 97.9348 283.106 105.075C281.744 108.922 281.588 112.875 280.831 116.829C279.693 122.778 277.243 127.287 272.456 131.525C270.973 132.838 269.88 134.185 269.104 135.627C267.562 137.067 266.22 138.696 265.233 140.688C263.974 143.231 263.617 146.283 265.071 148.819C265.463 149.501 266.438 150.87 267.449 151.491C263.664 158.867 261.583 166.945 261.817 175.013C261.959 179.883 262.219 184.756 262.522 189.62C262.604 190.926 263.069 193.083 263.767 190.892C264.406 188.889 263.604 185.743 263.53 183.651C263.169 173.454 262.861 164.183 267.448 154.657C267.93 153.658 268.44 152.668 268.971 151.686C269.002 151.669 269.031 151.649 269.06 151.63C269.08 151.644 269.099 151.659 269.119 151.673C269.153 151.618 269.2 151.552 269.254 151.478C269.406 151.334 269.539 151.153 269.666 150.95C270.072 150.434 270.533 149.828 270.536 149.496C270.536 149.493 270.534 149.489 270.534 149.487C273.374 145.245 276.627 141.238 279.949 137.308C279.924 137.337 283.553 132.816 282.992 135.316C282.722 136.521 280.052 138.815 278.974 140.091C276.59 142.93 273.789 146.528 271.462 150.006C271.149 150.171 270.707 150.979 270.387 151.581C270.21 151.886 270.045 152.194 269.883 152.462C278.129 154.954 284.543 149.933 288.917 144.094C288.922 144.087 288.927 144.079 288.931 144.073C290.263 142.459 291.626 140.857 293.329 139.581C296.171 137.453 299.214 137.077 302.565 136.03C311.702 133.173 315.587 122.339 316.821 114.299C318.213 105.23 311.404 91.3219 299.515 92.2161Z" fill="#E7502F"/>
<path opacity="0.7" fill-rule="evenodd" clip-rule="evenodd" d="M282.814 66.8175C274.136 75.0808 269.943 86.5426 266.624 97.3179C262.916 109.353 260.467 121.573 260.373 134.086C260.311 142.306 260.067 150.579 260.591 158.79C260.777 161.706 261.095 164.627 261.6 167.512C261.642 167.749 262.772 174.191 263.854 172.69C264.469 171.836 262.695 166.008 262.561 165.037C261.807 159.569 261.632 154.061 261.669 148.554C261.729 139.486 261.437 130.465 262.442 121.431C262.591 120.082 262.71 118.666 263.06 117.346C263.432 115.943 262.958 116.556 264.169 116C265.346 115.46 266.8 115.537 268.021 114.86C272.864 112.173 275.341 105.271 277.27 100.743C279.475 95.5641 280.816 90.0417 281.886 84.5918C282.672 80.588 283.234 76.6082 283.552 72.5525C283.653 71.2742 283.659 69.9377 283.933 68.6808C284.007 68.3418 284.378 67.7422 284.365 67.4419C284.336 66.8063 283.917 66.4328 283.883 65.8989C283.519 66.1979 283.163 66.5043 282.814 66.8175Z" fill="#E7502F"/>
<path opacity="0.7" fill-rule="evenodd" clip-rule="evenodd" d="M235.496 176.917C235.496 190.583 247.604 201.661 262.54 201.661C277.477 201.661 289.585 190.583 289.585 176.917" fill="#E7502F"/>
<path opacity="0.7" fill-rule="evenodd" clip-rule="evenodd" d="M281.075 155.251C287.768 154.8 295.243 159.741 298.471 164.882C301.074 169.027 300.636 174.471 299.028 178.875C297.951 181.823 295.602 186.027 291.684 186.068C286.782 186.119 286.545 180.576 286.45 177.335C286.325 173.027 285.73 169.274 282.019 166.337C281.561 165.975 281.08 165.635 280.6 165.296C280.173 164.995 279.746 164.694 279.336 164.376C279.27 164.326 279.204 164.275 279.138 164.224C277.825 163.215 276.448 162.155 276.28 160.492C276.037 158.082 277.524 157.648 279.794 158.096C279.867 158.111 280.066 158.179 280.337 158.273C281.496 158.675 283.97 159.534 283.502 158.508C283.326 158.121 282.682 157.815 281.87 157.586C279.768 157.376 277.26 157.134 276.54 157.279C268.761 158.84 265.733 168.698 264.929 174.962C264.842 175.637 264.772 176.316 264.71 176.995H263.281C263.381 175.355 263.511 173.717 263.811 172.095C264.958 165.891 268.542 156.779 276.404 155.772C276.694 155.734 277.761 155.728 279.053 155.797C279.665 155.484 280.351 155.295 281.075 155.251Z" fill="#B45661"/>
</g>
<g opacity="0.5">
<path opacity="0.5" fill-rule="evenodd" clip-rule="evenodd" d="M117.027 59.7855C118.584 57.7545 121.473 52.5961 123.664 51.8704C125.075 51.4029 124.664 56.2383 124.681 57.1603C124.749 60.7275 124.37 64.2721 123.901 67.8092C123.056 74.1889 120.295 79.8699 116.508 85.2995C114.559 88.0932 112.273 90.9212 109.107 92.6642C107.65 93.4672 105.896 93.6014 104.457 94.2932C102.781 95.0983 103.694 94.4474 102.938 96.0453C101.889 98.2642 101.554 101.127 101.068 103.494C98.84 114.362 93.4444 171.814 94.3799 182.868C94.4629 183.848 92.9699 184.082 92.895 182.886C92.499 176.544 95.9274 132.621 97.6575 118.258C99.3872 103.894 101.138 91.2039 102.893 86.2347C105.022 80.2055 108.868 72.9554 112.069 67.3329C113.556 64.7212 115.177 62.199 117.027 59.7855Z" fill="#B45661"/>
<path opacity="0.5" fill-rule="evenodd" clip-rule="evenodd" d="M128.582 130.234C132.633 127.513 137.019 132.648 133.353 135.37C131.326 136.874 129.207 136.339 128.015 135.085C127.24 135.949 126.516 136.852 125.819 137.614C123.698 139.939 121.693 142.318 119.776 144.753C115.795 149.811 112.383 155.155 108.816 160.402C105.296 165.58 101.804 170.784 98.6129 176.093C95.9099 180.591 92.307 185.883 91.3816 190.814C92.7857 180.356 98.1138 170.304 104.459 161.084C110.752 151.94 117.974 141.953 127.718 134.737C126.726 133.403 126.699 131.498 128.582 130.234Z" fill="#F1F447"/>
<path opacity="0.5" fill-rule="evenodd" clip-rule="evenodd" d="M51.7088 104.728C53.9758 105.133 57.6801 109.825 59.5488 111.613C61.7696 113.738 63.7844 116.002 65.6837 118.375C69.7723 123.482 73.4289 128.911 76.5382 134.573C81.607 143.804 85.6682 153.279 88.6153 163.33C90.4195 169.483 91.5876 175.86 92.2796 182.193C92.4104 183.387 93.7789 192.595 91.8069 192.843C90.0334 193.066 90.5814 185.852 90.4958 184.87C89.5285 173.798 86.631 163.024 82.601 152.588C81.723 150.314 80.9076 147.53 79.5035 145.484C78.4925 144.01 79.4963 144.524 77.7196 143.967C76.194 143.487 74.4558 143.605 72.8936 143.018C69.4998 141.745 66.7824 139.273 64.4004 136.786C59.7713 131.953 56.1029 126.726 54.1907 120.533C53.13 117.1 52.1553 113.647 51.6144 110.107C51.4744 109.193 50.2486 104.466 51.7088 104.728Z" fill="#B45661"/>
<path opacity="0.5" fill-rule="evenodd" clip-rule="evenodd" d="M60.655 26.6588C69.1944 40.2086 76.2117 55.0929 80.7427 70.1683C83.4883 79.3024 85.4081 88.6755 87.3156 97.9804C90.269 112.388 93.0628 126.795 93.8574 141.459C94.6569 156.208 96.2377 173.219 90.9596 187.425C93.5963 173.002 91.0859 157.651 90.6414 143.139C90.4291 136.211 89.8137 129.351 89.0061 122.464C88.2225 115.783 86.9426 109.133 85.7508 102.505C85.1702 99.2766 84.5604 96.0534 83.9395 92.8319C83.7539 91.8706 83.6757 89.0185 83.0092 88.362C82.3387 87.701 78.9167 87.4315 77.8424 86.9464C75.679 85.9699 73.6441 84.5825 71.8431 83.1165C68.3907 80.3061 65.3872 76.6341 63.0166 73.0143C57.5317 64.6391 55.3388 54.418 55.4497 44.7182C55.4709 42.8349 58.7812 22.5553 57.4517 22.276C57.5318 22.1902 57.6075 22.1017 57.6789 22.0095C58.6854 23.5514 59.6731 25.1037 60.655 26.6588Z" fill="#E7502F"/>
<path opacity="0.5" fill-rule="evenodd" clip-rule="evenodd" d="M152.823 75.5277C152.955 75.3538 153.813 74.1447 153.381 74.222C154.26 74.0644 152.171 75.5555 154.362 74.6406C153.322 75.5396 153.922 76.7069 153.936 77.9167C153.959 79.881 153.6 81.8287 153.195 83.7506C152.556 86.7888 151.605 89.7425 150.223 92.5681C147.212 98.7261 142.1 104.654 136.03 108.504C133.034 110.404 130.097 111.052 126.68 111.927C124.521 112.48 124.35 113.501 123.204 115.418C120.819 119.409 118.476 123.387 116.373 127.513C113.861 132.44 111.422 137.373 109.122 142.387C101.373 159.276 95.0659 176.774 91.7539 194.882C91.6727 184.211 94.3709 173.22 97.774 163.049C100.253 155.638 103.48 148.495 106.923 141.424C107.757 139.71 109.021 137.507 109.375 135.615C109.623 134.29 108.865 133.016 108.518 131.62C107.164 126.184 107.261 120.093 108.45 114.628C109.76 108.602 113.55 105.805 119.962 104.951C122.306 104.639 125.287 104.753 127.437 103.838C129.779 102.843 130.745 99.5681 132.078 97.4665C135.655 91.8204 139.906 86.4058 144.787 81.6487C146.139 80.3315 147.592 79.116 149.134 77.9896C150.106 77.2788 152.161 76.4032 152.823 75.5277Z" fill="#E7502F"/>
<path opacity="0.5" fill-rule="evenodd" clip-rule="evenodd" d="M79.0986 185.299C78.9336 184.276 79.8005 183.357 80.9309 183.357H103.685C104.815 183.357 105.682 184.276 105.517 185.299L103.758 196.21C103.222 199.536 100.103 202 96.4282 202H88.1874C84.5127 202 81.3933 199.536 80.8572 196.21L79.0986 185.299Z" fill="#F1F447"/>
</g>
<path fill-rule="evenodd" clip-rule="evenodd" d="M60.4167 188.935C60.4167 196.15 61.039 202 69.3925 202C77.7459 202 78.3682 196.15 78.3682 188.935" fill="#F58B3D"/>
<path fill-rule="evenodd" clip-rule="evenodd" d="M71.8776 184.433C71.5714 184.917 71.2984 185.411 71.0572 185.913C71.0487 184.88 71.1111 183.84 71.2816 182.785C71.5729 180.978 72.0179 179.181 72.4361 177.387C72.7366 176.098 72.7176 173.782 73.8581 172.754C74.1709 172.532 74.2462 172.968 74.2462 173.157C74.2501 173.197 74.2453 172.385 73.9418 172.527C72.1373 173.379 71.5527 176.06 70.9749 177.403C70.1321 179.362 69.4149 181.365 69.1196 183.404C69.045 183.919 69.0044 184.433 68.9951 184.947C68.9337 184.81 68.8761 184.671 68.8124 184.534C67.7709 182.3 66.3654 180.119 64.6125 178.108C64.181 177.613 58.7557 172.73 58.331 173.477C58.3729 173.586 58.4606 173.676 58.5944 173.748C58.6023 173.756 58.6025 173.751 58.5979 173.739C58.9165 174.21 59.8225 174.937 60.1047 175.35C60.8149 176.388 61.3668 177.49 61.9277 178.571C63.1127 180.856 64.212 183.163 65.2777 185.475C65.5258 186.014 65.7845 186.55 66.0483 187.083C63.3284 183.494 59.6998 180.235 54.7049 178.37C56.4109 179.164 57.5294 180.658 58.6815 181.802C60.0711 183.182 61.5346 184.524 62.9268 185.902C64.5689 187.528 66.5009 189.241 68.0804 191.04C69.6103 193.979 71.0969 196.921 72.0147 200.01C71.6386 198.942 71.9852 197.467 71.9208 196.347C71.8697 195.456 71.7558 194.571 71.5998 193.688C71.7927 194.087 71.959 194.485 72.0343 194.856C71.9655 194.234 71.8863 193.617 71.8012 193.002C72.0197 192.427 72.2342 191.89 72.3791 191.448C73.1218 189.18 74.0061 186.951 75.2104 184.778C76.3248 182.768 77.603 180.784 78.9958 178.86C79.6455 177.964 80.3042 177.07 80.9589 176.175C81.3871 175.589 81.795 174.651 82.3915 174.089C78.536 177.314 74.3237 180.563 71.8776 184.433Z" fill="#F58B3D"/>
<path fill-rule="evenodd" clip-rule="evenodd" d="M305.75 37.2043C304.645 33.8312 302.05 31.191 299.356 28.7722C294.112 24.063 291.292 21.1513 289.423 14.2626C288.323 10.2112 287.205 5.918 283.718 2.97866C281.18 0.838166 276.811 -0.960214 273.417 0.572519C268.194 3.42457 266.791 9.27745 267.318 14.5184C267.971 21.0141 271.287 25.0194 277.658 27.4119C281.248 28.7594 283.634 30.5375 285.583 33.6356C287.142 36.1128 288.05 39.215 290.009 41.4606C292.938 44.8181 296.602 46.3102 301.119 45.7526C296.888 38.6306 291.945 31.4415 285.983 25.4449C285.425 24.8421 282.133 22.5346 282.797 21.5071C283.528 20.3759 286.908 24.6255 286.884 24.5998C288.616 26.4195 290.22 28.3533 291.794 30.3056C291.79 30.3073 291.785 30.3087 291.781 30.3104C293.402 32.314 295.01 34.3468 296.588 36.405C297.225 37.2758 297.846 38.1574 298.441 39.0614C299.313 40.3878 300.698 44.1524 302.125 44.9679C302.43 45.1421 302.713 45.2398 302.977 45.2798C303.951 46.739 304.898 48.2098 305.8 49.6978C308.153 53.5844 310.174 57.6879 311.1 62.0758C311.371 63.3568 311.18 68.1474 312.135 69.0721C313.882 70.7632 313.37 67.5064 313.266 66.5234C312.398 58.3838 309.204 51.4493 304.567 44.6062C305.992 42.904 306.198 38.571 305.75 37.2043Z" fill="#F58B3D"/>
<path fill-rule="evenodd" clip-rule="evenodd" d="M245.917 41.1373C247.759 39.1519 252.186 38.815 254.894 38.9479C258.244 39.1123 261.686 39.8587 264.874 40.761C270.124 42.247 275.227 44.9594 279.851 47.5847C280.409 47.901 287.275 51.6787 286.667 52.3418C286.065 52.9987 279.325 48.5111 277.822 47.7376C274.617 46.0868 271.677 44.1344 268.143 43.0439C264.485 41.9148 260.616 41.4677 256.768 41.4986C256.274 41.5027 254.664 41.1878 254.629 41.8562C254.595 42.5097 257.26 42.1687 257.73 42.1728C259.671 42.1891 261.624 42.3562 263.537 42.664C267.122 43.2405 270.492 44.4018 273.563 46.1834C272.706 48.006 270.653 48.8463 268.498 48.3901C266.636 47.9959 264.821 47.0234 262.997 46.7424C261.742 46.5488 260.485 46.6641 259.267 46.9878C256.055 47.8417 254.202 49.5914 250.671 48.3742C247.903 47.4203 243.272 43.9924 245.917 41.1373Z" fill="#F58B3D"/>
<path fill-rule="evenodd" clip-rule="evenodd" d="M237.997 9.14628C233.908 8.87338 229.341 11.8595 227.369 14.967C225.779 17.4724 226.046 20.7624 227.029 23.4242C227.686 25.2063 229.122 27.747 231.516 27.7718C234.511 27.8028 234.655 24.4524 234.713 22.4937C234.79 19.8898 235.153 17.6213 237.42 15.8464C237.7 15.6274 237.994 15.4223 238.288 15.2172C238.548 15.0351 238.809 14.8531 239.06 14.6614C239.1 14.6307 239.14 14.6001 239.18 14.5693C239.982 13.9595 240.824 13.319 240.927 12.3138C241.075 10.8571 240.167 10.595 238.78 10.8656C238.735 10.8743 238.613 10.9161 238.448 10.9728C237.74 11.2158 236.228 11.7344 236.514 11.1145C236.622 10.8809 237.015 10.6958 237.511 10.5571C238.796 10.4307 240.327 10.284 240.768 10.3716C245.52 11.3153 247.37 17.2735 247.861 21.059C247.917 21.4877 247.962 21.9178 248 22.3485H248.872C248.811 21.3369 248.731 20.3268 248.544 19.3265C247.844 15.5768 245.654 10.0695 240.851 9.46088C240.674 9.4382 240.022 9.43437 239.232 9.4763C238.858 9.28702 238.439 9.17259 237.997 9.14628Z" fill="#F58B3D"/>
</svg>
